<svg id="svg" version="1.1" xmlns="http://www.w3.org/2000/svg" xmlns:xlink="http://www.w3.org/1999/xlink" width="400" height="400" viewBox="0, 0, 400,400"><g id="svgg"><path id="path0" d="M182.328 8.605 C 182.199 8.734,180.767 8.911,179.146 8.998 C 177.526 9.085,175.390 9.307,174.400 9.491 C 173.410 9.676,172.150 9.796,171.600 9.757 C 171.050 9.719,170.389 9.858,170.132 10.067 C 169.874 10.275,168.749 10.452,167.632 10.461 C 166.514 10.470,165.499 10.640,165.376 10.838 C 165.253 11.037,164.479 11.200,163.656 11.200 C 162.833 11.200,161.989 11.370,161.780 11.578 C 161.571 11.785,160.555 11.998,159.522 12.051 C 158.489 12.104,157.735 12.294,157.845 12.474 C 157.956 12.653,157.227 12.800,156.224 12.800 C 155.221 12.800,154.400 12.980,154.400 13.200 C 154.400 13.420,153.781 13.600,153.024 13.600 C 152.267 13.600,151.536 13.780,151.400 14.000 C 151.264 14.220,150.544 14.400,149.800 14.400 C 149.056 14.400,148.336 14.580,148.200 14.800 C 148.064 15.020,147.513 15.200,146.976 15.200 C 146.439 15.200,146.000 15.380,146.000 15.600 C 146.000 15.820,145.381 16.000,144.624 16.000 C 143.867 16.000,143.136 16.180,143.000 16.400 C 142.864 16.620,142.223 16.800,141.576 16.800 C 140.929 16.800,140.400 16.980,140.400 17.200 C 140.400 17.420,139.860 17.600,139.200 17.600 C 138.540 17.600,138.000 17.780,138.000 18.000 C 138.000 18.220,137.561 18.400,137.024 18.400 C 136.487 18.400,135.936 18.580,135.800 18.800 C 135.664 19.020,135.023 19.200,134.376 19.200 C 133.729 19.200,133.200 19.380,133.200 19.600 C 133.200 19.820,132.840 20.000,132.400 20.000 C 131.960 20.000,131.600 20.180,131.600 20.400 C 131.600 20.620,131.245 20.800,130.812 20.800 C 130.379 20.800,129.383 21.160,128.600 21.600 C 127.817 22.040,126.821 22.400,126.388 22.400 C 125.955 22.400,125.600 22.580,125.600 22.800 C 125.600 23.020,125.240 23.200,124.800 23.200 C 124.360 23.200,124.000 23.380,124.000 23.600 C 124.000 23.820,123.651 24.000,123.224 24.000 C 122.797 24.000,122.336 24.180,122.200 24.400 C 122.064 24.620,121.513 24.800,120.976 24.800 C 120.439 24.800,120.000 24.980,120.000 25.200 C 120.000 25.420,119.728 25.600,119.395 25.600 C 119.062 25.600,118.477 25.771,118.095 25.981 C 117.713 26.190,116.680 26.676,115.800 27.060 C 114.920 27.444,114.110 27.868,114.000 28.001 C 113.713 28.351,110.085 30.000,109.604 30.000 C 109.382 30.000,109.200 30.159,109.200 30.353 C 109.200 30.548,108.885 30.807,108.500 30.929 C 107.815 31.146,105.596 32.404,105.200 32.800 C 104.755 33.245,103.178 34.000,102.694 34.000 C 102.409 34.000,101.917 34.360,101.600 34.800 C 101.283 35.240,100.786 35.600,100.495 35.600 C 100.204 35.600,99.580 35.960,99.108 36.400 C 98.636 36.840,97.744 37.424,97.125 37.697 C 96.506 37.971,96.000 38.331,96.000 38.498 C 96.000 38.664,95.730 38.800,95.400 38.800 C 95.070 38.800,94.800 38.980,94.800 39.200 C 94.800 39.420,94.530 39.600,94.200 39.600 C 93.870 39.600,93.600 39.780,93.600 40.000 C 93.600 40.220,93.330 40.400,93.000 40.400 C 92.670 40.400,92.400 40.547,92.400 40.726 C 92.400 40.906,91.680 41.457,90.800 41.952 C 88.895 43.023,88.850 43.282,90.340 44.610 C 94.604 48.408,93.300 51.150,83.359 59.292 C 73.993 66.963,63.557 77.921,56.354 87.649 C 51.775 93.832,50.000 96.330,50.000 96.589 C 50.000 96.729,49.312 97.869,48.471 99.122 C 45.389 103.713,39.402 114.903,37.620 119.400 C 37.097 120.720,36.543 121.980,36.390 122.200 C 35.565 123.380,30.551 137.420,29.390 141.800 C 27.627 148.451,27.201 150.192,26.452 153.800 C 21.150 179.366,21.668 204.734,28.007 229.800 C 39.539 275.404,69.468 313.736,111.648 336.925 C 115.658 339.130,116.953 342.070,115.378 345.391 C 113.690 348.947,110.101 349.370,104.965 346.615 C 85.592 336.227,66.011 320.057,52.389 303.200 C 51.411 301.990,50.518 300.910,50.404 300.800 C 50.213 300.614,49.220 299.284,45.253 293.900 C 42.759 290.515,36.000 280.236,36.000 279.828 C 36.000 279.748,35.311 278.538,34.469 277.141 C 29.285 268.537,21.185 249.829,18.735 240.800 C 18.526 240.030,18.200 238.860,18.010 238.200 C 17.820 237.540,17.194 235.110,16.618 232.800 C 16.043 230.490,15.396 227.970,15.181 227.200 C 11.109 212.610,10.018 185.876,12.618 164.400 C 12.738 163.410,12.934 161.610,13.053 160.400 C 13.173 159.190,13.435 158.029,13.635 157.820 C 14.050 157.388,14.120 155.577,13.758 154.635 C 13.349 153.568,12.800 154.363,12.800 156.024 C 12.800 156.891,12.655 157.600,12.478 157.600 C 12.301 157.600,12.112 158.365,12.057 159.300 C 12.002 160.235,11.787 161.171,11.579 161.380 C 11.370 161.589,11.200 162.523,11.200 163.456 C 11.200 164.389,11.037 165.253,10.838 165.376 C 10.640 165.499,10.470 166.514,10.461 167.632 C 10.452 168.749,10.279 169.874,10.076 170.132 C 9.873 170.389,9.583 172.040,9.431 173.800 C 9.279 175.560,9.035 178.260,8.889 179.800 C 8.257 186.469,8.645 223.579,9.360 224.735 C 9.466 224.907,9.591 226.028,9.637 227.224 C 9.683 228.421,9.880 229.606,10.074 229.858 C 10.268 230.109,10.442 231.189,10.460 232.258 C 10.477 233.326,10.631 234.380,10.801 234.600 C 10.971 234.820,11.209 235.720,11.329 236.600 C 11.558 238.269,12.040 240.546,12.811 243.600 C 13.061 244.590,13.360 246.076,13.475 246.903 C 13.590 247.729,13.845 248.505,14.042 248.626 C 14.239 248.748,14.400 249.467,14.400 250.224 C 14.400 250.981,14.580 251.600,14.800 251.600 C 15.020 251.600,15.200 252.230,15.200 253.000 C 15.200 253.770,15.380 254.400,15.600 254.400 C 15.820 254.400,16.000 255.030,16.000 255.800 C 16.000 256.570,16.180 257.200,16.400 257.200 C 16.620 257.200,16.800 257.740,16.800 258.400 C 16.800 259.060,16.980 259.600,17.200 259.600 C 17.420 259.600,17.600 260.140,17.600 260.800 C 17.600 261.460,17.780 262.000,18.000 262.000 C 18.220 262.000,18.400 262.540,18.400 263.200 C 18.400 263.860,18.580 264.400,18.800 264.400 C 19.020 264.400,19.200 264.951,19.200 265.624 C 19.200 266.337,19.367 266.744,19.600 266.600 C 19.827 266.460,20.000 266.796,20.000 267.376 C 20.000 267.939,20.180 268.400,20.400 268.400 C 20.620 268.400,20.800 268.839,20.800 269.376 C 20.800 269.913,20.980 270.464,21.200 270.600 C 21.420 270.736,21.600 271.197,21.600 271.624 C 21.600 272.051,21.780 272.400,22.000 272.400 C 22.220 272.400,22.400 272.850,22.400 273.400 C 22.400 273.950,22.580 274.400,22.800 274.400 C 23.020 274.400,23.200 274.760,23.200 275.200 C 23.200 275.640,23.380 276.000,23.600 276.000 C 23.820 276.000,24.000 276.360,24.000 276.800 C 24.000 277.240,24.180 277.600,24.400 277.600 C 24.620 277.600,24.800 277.938,24.800 278.352 C 24.800 279.397,28.649 287.985,29.841 289.600 C 30.084 289.930,30.805 291.190,31.442 292.400 C 32.079 293.610,32.735 294.660,32.900 294.733 C 33.065 294.807,33.200 295.212,33.200 295.633 C 33.200 296.055,33.380 296.400,33.600 296.400 C 33.820 296.400,34.000 296.720,34.000 297.112 C 34.000 297.503,34.360 298.083,34.800 298.400 C 35.240 298.717,35.600 299.297,35.600 299.688 C 35.600 300.080,35.780 300.400,36.000 300.400 C 36.220 300.400,36.400 300.636,36.400 300.925 C 36.400 301.213,36.715 301.798,37.100 302.225 C 37.485 302.651,38.055 303.495,38.368 304.100 C 38.680 304.705,39.085 305.200,39.268 305.200 C 39.450 305.200,39.600 305.470,39.600 305.800 C 39.600 306.130,39.780 306.400,40.000 306.400 C 40.220 306.400,40.400 306.670,40.400 307.000 C 40.400 307.330,40.580 307.600,40.800 307.600 C 41.020 307.600,41.200 307.855,41.200 308.167 C 41.200 308.478,41.335 308.793,41.500 308.867 C 41.665 308.940,42.340 309.810,43.000 310.800 C 43.660 311.790,44.338 312.780,44.506 313.000 C 44.674 313.220,45.733 314.660,46.859 316.200 C 47.985 317.740,49.062 319.060,49.253 319.133 C 49.444 319.207,49.600 319.445,49.600 319.662 C 49.600 319.879,49.825 320.294,50.100 320.583 C 50.375 320.872,51.410 322.042,52.400 323.183 C 53.390 324.323,55.190 326.313,56.400 327.605 C 57.610 328.897,59.050 330.520,59.600 331.212 C 61.026 333.007,67.255 339.214,68.821 340.400 C 69.547 340.950,71.300 342.525,72.717 343.900 C 74.134 345.275,75.542 346.400,75.846 346.400 C 76.151 346.400,76.400 346.572,76.400 346.782 C 76.400 347.313,79.658 350.400,80.219 350.400 C 80.334 350.400,80.827 350.770,81.314 351.221 C 82.123 351.971,85.000 354.108,87.209 355.600 C 87.698 355.930,88.306 356.380,88.560 356.600 C 89.659 357.552,91.601 358.800,91.984 358.800 C 92.213 358.800,92.400 358.980,92.400 359.200 C 92.400 359.420,92.670 359.600,93.000 359.600 C 93.330 359.600,93.600 359.780,93.600 360.000 C 93.600 360.220,93.870 360.400,94.200 360.400 C 94.530 360.400,94.800 360.580,94.800 360.800 C 94.800 361.020,95.070 361.200,95.400 361.200 C 95.730 361.200,96.000 361.380,96.000 361.600 C 96.000 361.820,96.270 362.000,96.600 362.000 C 96.930 362.000,97.200 362.180,97.200 362.400 C 97.200 362.620,97.470 362.800,97.800 362.800 C 98.130 362.800,98.400 362.980,98.400 363.200 C 98.400 363.420,98.655 363.600,98.967 363.600 C 99.278 363.600,99.593 363.735,99.667 363.900 C 99.740 364.065,100.655 364.633,101.700 365.163 C 102.745 365.692,103.600 366.277,103.600 366.463 C 103.600 366.648,103.960 366.800,104.400 366.800 C 104.840 366.800,105.203 366.935,105.206 367.100 C 105.210 367.265,106.110 367.840,107.206 368.379 C 108.303 368.917,109.200 369.502,109.200 369.679 C 109.200 369.855,109.560 370.000,110.000 370.000 C 110.440 370.000,110.800 370.191,110.800 370.424 C 110.800 370.657,110.968 370.744,111.172 370.617 C 111.377 370.491,111.656 370.566,111.791 370.786 C 112.048 371.201,115.818 373.026,119.355 374.447 C 120.480 374.899,121.713 375.433,122.095 375.634 C 122.477 375.835,123.062 376.000,123.395 376.000 C 123.728 376.000,124.000 376.180,124.000 376.400 C 124.000 376.620,124.360 376.800,124.800 376.800 C 125.240 376.800,125.600 376.980,125.600 377.200 C 125.600 377.420,125.926 377.600,126.325 377.600 C 126.724 377.600,127.795 377.960,128.706 378.400 C 129.616 378.840,130.516 379.200,130.706 379.200 C 130.895 379.200,131.795 379.560,132.706 380.000 C 133.616 380.440,134.629 380.800,134.957 380.800 C 135.285 380.800,135.664 380.980,135.800 381.200 C 135.936 381.420,136.476 381.600,137.000 381.600 C 137.524 381.600,138.064 381.780,138.200 382.000 C 138.336 382.220,138.887 382.400,139.424 382.400 C 139.961 382.400,140.400 382.580,140.400 382.800 C 140.400 383.020,140.940 383.200,141.600 383.200 C 142.260 383.200,142.800 383.380,142.800 383.600 C 142.800 383.820,143.394 384.000,144.120 384.000 C 144.846 384.000,145.636 384.196,145.875 384.435 C 146.894 385.454,147.267 381.101,146.409 378.200 C 146.214 377.540,145.823 376.190,145.541 375.200 C 143.268 367.233,138.097 363.890,125.800 362.437 C 123.820 362.204,120.670 361.829,118.800 361.606 C 116.930 361.382,114.489 361.199,113.376 361.199 C 111.310 361.200,110.290 360.715,109.883 359.539 C 109.278 357.786,111.777 356.880,117.400 356.815 C 122.348 356.759,130.576 355.595,135.400 354.271 C 141.220 352.673,144.748 348.787,146.358 342.200 C 146.627 341.100,147.008 339.570,147.205 338.800 C 147.602 337.245,147.846 333.707,147.574 333.452 C 147.478 333.362,145.510 332.657,143.200 331.885 C 138.416 330.286,136.129 329.436,133.704 328.356 C 132.772 327.940,131.913 327.600,131.796 327.600 C 130.939 327.600,120.757 322.487,114.400 318.864 C 111.372 317.139,100.744 310.014,100.000 309.211 C 99.890 309.093,99.141 308.504,98.335 307.904 C 97.529 307.303,96.629 306.584,96.335 306.306 C 96.041 306.028,94.267 304.511,92.393 302.935 C 84.481 296.284,73.250 283.781,67.095 274.773 C 64.117 270.414,60.800 265.238,60.800 264.949 C 60.800 264.825,60.450 264.231,60.021 263.630 C 56.376 258.511,48.573 240.078,45.615 229.600 C 45.336 228.610,44.970 227.350,44.803 226.800 C 44.514 225.849,44.148 224.223,43.161 219.500 C 42.920 218.345,42.566 216.680,42.376 215.800 C 42.186 214.920,41.852 212.940,41.634 211.400 C 41.415 209.860,41.005 206.980,40.721 205.000 C 40.024 200.133,40.021 177.050,40.717 172.400 C 40.996 170.530,41.417 167.650,41.652 166.000 C 41.887 164.350,42.353 161.650,42.689 160.000 C 43.025 158.350,43.453 156.190,43.640 155.200 C 43.963 153.482,44.274 152.251,45.227 148.900 C 45.461 148.075,45.800 146.770,45.979 146.000 C 46.470 143.893,48.952 136.589,50.396 133.000 C 50.776 132.057,51.444 130.487,53.205 126.400 C 55.329 121.472,59.843 112.883,61.647 110.338 C 62.061 109.754,62.400 109.079,62.400 108.838 C 62.400 108.597,62.580 108.400,62.800 108.400 C 63.020 108.400,63.200 108.212,63.200 107.982 C 63.200 107.094,71.519 95.549,75.612 90.758 C 78.489 87.390,90.003 75.854,92.800 73.537 C 102.162 65.782,103.884 65.036,107.200 67.300 C 111.704 70.374,110.929 74.581,105.000 79.242 C 91.951 89.501,78.534 104.817,71.144 117.890 C 65.355 128.131,60.249 139.928,57.937 148.400 C 57.727 149.170,57.373 150.430,57.151 151.200 C 56.076 154.923,54.670 161.303,53.977 165.600 C 52.062 177.473,51.569 193.898,52.835 203.600 C 53.730 210.462,54.500 215.142,55.205 218.000 C 55.394 218.770,55.758 220.300,56.013 221.400 C 56.268 222.500,56.618 223.850,56.792 224.400 C 56.965 224.950,57.336 226.210,57.615 227.200 C 60.457 237.267,65.663 249.555,70.369 257.300 C 71.266 258.777,72.000 260.086,72.000 260.208 C 72.000 260.607,76.860 267.695,80.279 272.282 C 83.530 276.643,89.491 283.570,92.430 286.400 C 98.760 292.495,101.391 294.867,104.400 297.190 C 105.390 297.954,106.290 298.692,106.400 298.830 C 107.269 299.919,120.183 308.250,124.800 310.700 C 129.936 313.425,131.046 313.983,134.200 315.420 C 144.043 319.905,148.788 321.304,149.405 319.902 C 150.218 318.055,152.400 318.752,152.400 320.859 C 152.400 322.240,152.540 322.305,158.600 323.716 C 164.399 325.067,168.036 325.743,175.600 326.878 C 180.237 327.574,202.587 327.562,207.200 326.861 C 221.974 324.616,233.185 321.730,243.235 317.586 C 248.092 315.583,251.260 316.292,252.959 319.760 C 254.934 323.791,252.945 326.936,247.000 329.181 C 216.923 340.541,188.717 342.615,157.000 335.801 C 155.460 335.471,154.155 335.200,154.100 335.200 C 153.796 335.200,154.104 338.911,154.565 340.800 C 157.572 353.134,162.042 355.719,183.600 357.588 C 190.133 358.154,190.710 358.287,191.033 359.303 C 191.577 361.019,190.290 361.415,182.397 361.956 C 159.788 363.508,156.407 366.089,153.364 384.127 C 153.037 386.062,154.081 387.200,156.183 387.200 C 156.962 387.200,157.600 387.343,157.600 387.518 C 157.600 387.693,158.260 387.881,159.066 387.935 C 159.872 387.989,160.692 388.133,160.888 388.255 C 161.360 388.546,165.244 389.211,168.000 389.471 C 169.210 389.585,170.380 389.811,170.600 389.973 C 170.820 390.134,171.884 390.311,172.964 390.367 C 174.044 390.423,175.304 390.600,175.764 390.760 C 178.461 391.701,221.239 391.689,224.400 390.747 C 224.950 390.583,226.300 390.348,227.400 390.224 C 228.500 390.101,230.570 389.813,232.000 389.585 C 233.430 389.357,235.410 389.070,236.400 388.946 C 237.390 388.823,238.371 388.560,238.580 388.361 C 238.789 388.163,239.734 388.000,240.680 388.000 C 241.626 388.000,242.400 387.839,242.400 387.642 C 242.400 387.445,243.075 387.182,243.900 387.057 C 247.409 386.527,248.420 386.292,248.627 385.956 C 248.748 385.760,249.456 385.600,250.200 385.600 C 250.944 385.600,251.664 385.420,251.800 385.200 C 251.936 384.980,252.476 384.800,253.000 384.800 C 253.524 384.800,254.064 384.620,254.200 384.400 C 254.336 384.180,255.067 384.000,255.824 384.000 C 256.581 384.000,257.200 383.820,257.200 383.600 C 257.200 383.380,257.740 383.200,258.400 383.200 C 259.060 383.200,259.600 383.020,259.600 382.800 C 259.600 382.580,260.039 382.400,260.576 382.400 C 261.113 382.400,261.664 382.220,261.800 382.000 C 261.936 381.780,262.577 381.600,263.224 381.600 C 263.871 381.600,264.400 381.453,264.400 381.272 C 264.400 381.092,265.300 380.700,266.400 380.400 C 267.500 380.100,268.400 379.708,268.400 379.528 C 268.400 379.347,268.743 379.200,269.162 379.200 C 269.821 379.200,270.989 378.714,274.095 377.150 C 274.477 376.957,275.062 376.800,275.395 376.800 C 275.728 376.800,276.000 376.620,276.000 376.400 C 276.000 376.180,276.360 376.000,276.800 376.000 C 277.240 376.000,277.600 375.820,277.600 375.600 C 277.600 375.380,277.967 375.200,278.416 375.200 C 279.342 375.200,284.842 372.784,287.718 371.114 C 288.772 370.501,289.897 370.000,290.218 370.000 C 290.538 370.000,290.800 369.820,290.800 369.600 C 290.800 369.380,291.036 369.200,291.325 369.200 C 291.613 369.200,292.205 368.885,292.640 368.500 C 293.075 368.115,293.694 367.741,294.016 367.670 C 294.337 367.598,294.660 367.373,294.733 367.170 C 294.807 366.966,295.212 366.800,295.633 366.800 C 296.055 366.800,296.400 366.620,296.400 366.400 C 296.400 366.180,296.670 366.000,297.000 366.000 C 297.330 366.000,297.600 365.820,297.600 365.600 C 297.600 365.380,297.870 365.200,298.200 365.200 C 298.530 365.200,298.800 365.020,298.800 364.800 C 298.800 364.580,299.160 364.400,299.600 364.400 C 300.040 364.400,300.400 364.220,300.400 364.000 C 300.400 363.780,300.636 363.600,300.925 363.600 C 301.213 363.600,301.836 363.240,302.308 362.800 C 302.780 362.360,303.455 362.000,303.807 362.000 C 304.159 362.000,304.336 361.820,304.200 361.600 C 304.064 361.380,304.233 361.200,304.576 361.200 C 304.919 361.200,305.200 361.020,305.200 360.800 C 305.200 360.580,305.468 360.400,305.797 360.400 C 306.125 360.400,306.618 360.040,306.893 359.600 C 307.168 359.160,307.681 358.800,308.034 358.800 C 308.655 358.800,310.800 357.208,310.800 356.747 C 310.800 356.621,310.271 355.965,309.625 355.289 C 306.525 352.045,307.076 348.719,311.279 345.314 C 322.471 336.246,330.368 328.658,338.054 319.588 C 339.810 317.515,344.733 311.180,346.009 309.353 C 349.242 304.719,350.883 302.281,351.531 301.147 C 351.954 300.406,353.074 298.540,354.019 297.000 C 355.849 294.019,361.317 283.401,362.568 280.400 C 362.981 279.410,363.632 277.880,364.015 277.000 C 365.057 274.604,367.882 267.197,368.362 265.600 C 368.593 264.830,369.133 263.120,369.561 261.800 C 378.517 234.194,379.571 197.898,372.207 170.648 C 371.873 169.411,371.327 167.365,370.993 166.100 C 368.160 155.356,360.393 136.959,354.814 127.775 C 353.926 126.314,353.200 125.042,353.200 124.950 C 353.200 124.617,345.017 112.547,343.065 110.000 C 334.254 98.503,323.786 87.826,312.917 79.248 C 307.511 74.982,306.329 72.289,308.384 68.919 C 311.134 64.410,314.625 65.292,323.600 72.765 C 350.664 95.300,372.689 128.403,381.376 159.600 C 381.529 160.150,381.807 161.140,381.994 161.800 C 383.128 165.808,385.168 174.217,385.583 176.600 C 385.852 178.140,386.226 180.120,386.415 181.000 C 386.604 181.880,386.944 184.040,387.171 185.800 C 387.399 187.560,387.761 190.350,387.976 192.000 C 389.687 205.118,388.569 237.514,386.219 242.901 C 385.834 243.785,386.292 245.714,386.812 245.393 C 387.025 245.261,387.200 244.544,387.200 243.800 C 387.200 243.056,387.380 242.336,387.600 242.200 C 387.820 242.064,388.000 241.279,388.000 240.456 C 388.000 239.633,388.163 238.789,388.361 238.580 C 388.560 238.371,388.823 237.390,388.946 236.400 C 389.070 235.410,389.357 233.430,389.585 232.000 C 389.813 230.570,390.101 228.500,390.224 227.400 C 390.348 226.300,390.583 224.950,390.747 224.400 C 391.689 221.239,391.701 178.461,390.760 175.764 C 390.600 175.304,390.423 174.044,390.367 172.964 C 390.311 171.884,390.134 170.820,389.973 170.600 C 389.811 170.380,389.579 169.210,389.458 168.000 C 389.067 164.124,388.763 162.220,388.405 161.400 C 388.056 160.604,387.753 159.159,387.335 156.297 C 387.214 155.471,386.955 154.695,386.758 154.574 C 386.561 154.452,386.400 153.643,386.400 152.776 C 386.400 151.909,386.220 151.200,386.000 151.200 C 385.780 151.200,385.600 150.570,385.600 149.800 C 385.600 149.030,385.420 148.400,385.200 148.400 C 384.980 148.400,384.800 147.770,384.800 147.000 C 384.800 146.230,384.620 145.600,384.400 145.600 C 384.180 145.600,384.000 144.970,384.000 144.200 C 384.000 143.430,383.820 142.800,383.600 142.800 C 383.380 142.800,383.200 142.260,383.200 141.600 C 383.200 140.940,383.020 140.400,382.800 140.400 C 382.580 140.400,382.400 139.860,382.400 139.200 C 382.400 138.540,382.220 138.000,382.000 138.000 C 381.780 138.000,381.600 137.561,381.600 137.024 C 381.600 136.487,381.456 135.958,381.279 135.849 C 381.103 135.740,380.710 134.739,380.407 133.625 C 380.104 132.511,379.708 131.600,379.528 131.600 C 379.347 131.600,379.200 131.150,379.200 130.600 C 379.200 130.050,379.020 129.600,378.800 129.600 C 378.580 129.600,378.400 129.150,378.400 128.600 C 378.400 128.050,378.220 127.600,378.000 127.600 C 377.780 127.600,377.600 127.150,377.600 126.600 C 377.600 126.050,377.420 125.600,377.200 125.600 C 376.980 125.600,376.800 125.240,376.800 124.800 C 376.800 124.360,376.620 124.000,376.400 124.000 C 376.180 124.000,376.000 123.640,376.000 123.200 C 376.000 122.760,375.820 122.400,375.600 122.400 C 375.380 122.400,375.200 121.982,375.200 121.470 C 375.200 120.959,374.030 118.178,372.600 115.291 C 371.170 112.403,370.000 109.851,370.000 109.620 C 370.000 109.389,369.855 109.200,369.679 109.200 C 369.502 109.200,368.917 108.303,368.379 107.206 C 367.840 106.110,367.265 105.210,367.100 105.206 C 366.935 105.203,366.800 104.840,366.800 104.400 C 366.800 103.960,366.620 103.600,366.400 103.600 C 366.180 103.600,366.000 103.364,366.000 103.075 C 366.000 102.787,365.640 102.164,365.200 101.692 C 364.760 101.220,364.400 100.638,364.400 100.400 C 364.400 100.162,364.040 99.580,363.600 99.108 C 363.160 98.636,362.800 98.013,362.800 97.725 C 362.800 97.436,362.620 97.200,362.400 97.200 C 362.180 97.200,362.000 96.829,362.000 96.376 C 362.000 95.923,361.847 95.647,361.660 95.763 C 361.473 95.878,361.069 95.484,360.761 94.886 C 360.453 94.289,360.111 93.710,360.001 93.600 C 359.890 93.490,359.450 92.770,359.022 92.000 C 358.595 91.230,358.055 90.397,357.822 90.149 C 357.590 89.901,357.130 89.289,356.800 88.789 C 356.470 88.289,355.645 87.135,354.967 86.225 C 354.289 85.314,353.569 84.285,353.367 83.938 C 352.999 83.305,350.810 80.606,349.500 79.168 C 349.115 78.746,348.800 78.310,348.800 78.200 C 348.800 78.089,348.125 77.302,347.300 76.451 C 345.684 74.783,342.531 71.271,340.107 68.439 C 337.959 65.930,335.387 63.351,332.394 60.709 C 329.034 57.740,325.541 54.590,323.493 52.678 C 322.596 51.841,321.308 50.764,320.631 50.284 C 319.366 49.387,317.890 48.182,316.975 47.300 C 316.690 47.025,316.335 46.800,316.186 46.800 C 316.037 46.800,315.381 46.350,314.727 45.800 C 313.267 44.571,311.425 44.503,308.050 45.554 C 298.872 48.410,296.486 53.610,294.780 74.476 C 294.302 80.327,294.001 81.200,292.458 81.200 C 290.913 81.200,290.520 80.096,290.251 75.000 C 288.990 51.061,285.440 45.779,269.200 43.684 C 260.877 42.611,258.818 42.400,256.659 42.400 C 252.860 42.400,250.863 40.736,252.700 39.101 C 253.233 38.627,255.165 38.368,260.800 38.015 C 264.870 37.760,268.851 37.382,269.646 37.175 C 270.442 36.969,271.599 36.800,272.218 36.800 C 272.837 36.800,273.896 36.631,274.572 36.425 C 275.247 36.219,276.783 35.764,277.984 35.413 C 280.854 34.575,283.825 32.634,285.252 30.665 C 286.779 28.557,286.721 28.294,284.500 27.242 C 283.455 26.747,281.908 25.995,281.062 25.571 C 280.216 25.147,279.091 24.800,278.562 24.800 C 278.033 24.800,277.600 24.620,277.600 24.400 C 277.600 24.180,277.240 24.000,276.800 24.000 C 276.360 24.000,276.000 23.820,276.000 23.600 C 276.000 23.380,275.640 23.200,275.200 23.200 C 274.760 23.200,274.400 23.020,274.400 22.800 C 274.400 22.580,273.950 22.400,273.400 22.400 C 272.850 22.400,272.400 22.220,272.400 22.000 C 272.400 21.780,271.950 21.600,271.400 21.600 C 270.850 21.600,270.400 21.420,270.400 21.200 C 270.400 20.980,269.950 20.800,269.400 20.800 C 268.850 20.800,268.400 20.620,268.400 20.400 C 268.400 20.180,267.939 20.000,267.376 20.000 C 266.796 20.000,266.460 19.827,266.600 19.600 C 266.744 19.367,266.337 19.200,265.624 19.200 C 264.951 19.200,264.400 19.020,264.400 18.800 C 264.400 18.580,263.860 18.400,263.200 18.400 C 262.540 18.400,262.000 18.220,262.000 18.000 C 262.000 17.780,261.460 17.600,260.800 17.600 C 260.140 17.600,259.600 17.420,259.600 17.200 C 259.600 16.980,259.060 16.800,258.400 16.800 C 257.740 16.800,257.200 16.620,257.200 16.400 C 257.200 16.180,256.581 16.000,255.824 16.000 C 255.067 16.000,254.336 15.820,254.200 15.600 C 254.064 15.380,253.423 15.200,252.776 15.200 C 252.129 15.200,251.600 15.020,251.600 14.800 C 251.600 14.580,250.981 14.400,250.224 14.400 C 249.467 14.400,248.748 14.239,248.626 14.042 C 248.505 13.845,247.729 13.582,246.903 13.458 C 243.322 12.917,242.400 12.691,242.400 12.356 C 242.400 12.160,241.590 12.000,240.600 12.000 C 239.610 12.000,238.800 11.837,238.800 11.637 C 238.800 11.437,237.855 11.177,236.700 11.059 C 231.368 10.514,230.192 10.325,229.730 9.942 C 229.458 9.716,229.092 9.616,228.918 9.719 C 228.743 9.822,227.520 9.742,226.200 9.542 C 224.880 9.341,222.630 9.065,221.200 8.929 C 217.728 8.597,182.628 8.305,182.328 8.605 M226.200 31.942 C 239.275 33.387,241.143 34.109,241.797 37.980 C 242.724 43.469,238.570 46.635,232.306 45.213 C 220.218 42.467,196.524 42.917,178.400 46.236 C 168.103 48.122,150.344 53.123,148.932 54.535 C 148.786 54.681,148.425 54.800,148.129 54.800 C 147.833 54.800,146.738 55.181,145.696 55.647 C 144.653 56.112,143.170 56.760,142.400 57.087 C 140.771 57.779,135.320 60.303,134.305 60.835 C 128.988 63.628,123.335 55.349,127.562 50.958 C 128.339 50.151,136.208 46.000,136.962 46.000 C 137.098 46.000,138.062 45.622,139.104 45.160 C 141.182 44.240,142.522 43.677,143.900 43.146 C 144.395 42.956,145.205 42.629,145.700 42.419 C 146.817 41.946,155.231 39.197,159.000 38.073 C 163.233 36.811,167.663 35.745,173.200 34.657 C 180.437 33.235,182.903 32.868,193.400 31.654 C 197.176 31.218,221.583 31.432,226.200 31.942 M224.200 61.190 C 231.828 62.211,236.299 62.922,239.400 63.607 C 240.280 63.802,241.990 64.177,243.200 64.440 C 264.686 69.121,288.387 80.938,305.580 95.543 C 308.922 98.382,316.878 105.771,317.978 107.056 C 318.516 107.685,320.477 109.910,322.337 112.000 C 326.620 116.815,329.552 120.626,334.394 127.669 C 336.897 131.310,337.118 131.674,340.915 138.400 C 346.026 147.455,351.556 160.707,354.020 169.800 C 360.985 195.512,361.736 219.128,356.384 244.200 C 355.642 247.678,355.475 248.345,354.325 252.400 C 352.441 259.050,350.647 264.257,348.674 268.800 C 348.339 269.570,347.748 271.010,347.360 272.000 C 341.751 286.316,323.308 313.257,318.035 314.837 C 312.420 316.519,308.258 310.401,311.775 305.634 C 312.305 304.915,313.344 303.668,314.083 302.863 C 330.033 285.486,342.249 259.262,346.346 233.600 C 347.717 225.018,347.800 223.754,347.795 211.600 C 347.791 198.464,347.631 196.585,345.546 185.100 C 328.567 91.579,220.005 42.697,137.959 91.632 C 133.108 94.525,132.823 94.634,131.695 94.026 C 131.313 93.821,130.415 93.417,129.700 93.129 C 128.985 92.840,128.400 92.469,128.400 92.302 C 128.400 92.136,128.165 92.000,127.878 92.000 C 127.148 92.000,124.518 89.519,123.818 88.170 C 123.240 87.056,123.251 87.038,125.318 85.645 C 136.034 78.425,149.359 71.999,162.380 67.773 C 168.142 65.902,168.502 65.798,172.600 64.818 C 178.516 63.402,179.291 63.235,181.900 62.809 C 183.275 62.584,185.435 62.232,186.700 62.026 C 189.073 61.640,195.878 60.893,199.400 60.632 C 203.117 60.357,220.977 60.758,224.200 61.190 M221.734 84.761 C 224.965 88.107,224.956 87.700,221.870 90.942 C 218.657 94.316,218.272 94.319,214.980 90.995 C 211.816 87.799,211.812 88.013,215.089 84.710 C 218.404 81.369,218.460 81.370,221.734 84.761 M209.373 101.210 C 225.860 103.076,239.086 107.583,252.832 116.020 C 256.468 118.251,257.615 119.200,256.678 119.200 C 255.851 119.200,255.100 120.238,255.100 121.380 C 255.100 122.364,256.009 123.600,256.734 123.600 C 257.273 123.600,260.569 125.331,260.733 125.700 C 260.807 125.865,261.086 126.000,261.355 126.000 C 262.486 126.000,265.864 130.631,266.606 133.200 C 267.394 135.930,269.877 136.509,270.965 134.217 C 271.984 132.070,272.386 132.072,274.298 134.230 C 290.217 152.188,299.221 175.875,299.192 199.716 C 299.170 218.159,294.791 234.235,285.233 250.969 C 278.096 263.462,263.703 277.829,250.776 285.362 C 248.228 286.846,239.253 291.315,237.600 291.922 C 229.894 294.752,226.482 295.786,220.200 297.194 C 183.673 305.380,140.856 288.892,119.978 258.600 C 119.220 257.500,118.491 256.510,118.358 256.400 C 117.218 255.459,111.484 245.189,109.199 239.999 C 95.140 208.054,98.602 173.350,118.884 142.894 C 123.096 136.569,132.795 126.443,139.206 121.677 C 141.073 120.289,142.914 118.896,143.298 118.582 C 143.962 118.039,147.289 115.951,151.200 113.623 C 153.543 112.228,159.900 109.177,163.200 107.863 C 171.640 104.503,179.140 102.674,190.400 101.232 C 194.185 100.747,205.167 100.735,209.373 101.210 M99.752 116.206 C 103.052 118.367,103.111 121.631,99.939 126.456 C 90.690 140.523,84.903 155.021,82.478 170.200 C 82.232 171.740,81.844 174.295,81.615 175.877 C 81.081 179.576,81.075 197.728,81.607 201.167 C 82.436 206.538,82.938 209.462,83.431 211.800 C 84.316 215.997,86.262 222.847,87.182 225.000 C 87.370 225.440,88.111 227.330,88.829 229.200 C 91.584 236.379,96.888 246.089,101.668 252.707 C 105.901 258.566,104.328 264.000,98.400 264.000 C 94.957 264.000,90.609 258.844,84.400 247.400 C 83.445 245.640,82.371 243.660,82.012 243.000 C 72.359 225.226,66.897 194.011,69.939 174.000 C 72.546 156.850,75.793 146.218,82.438 133.075 C 90.279 117.566,94.923 113.041,99.752 116.206 M304.403 136.601 C 307.665 138.289,318.787 156.982,322.370 166.800 C 322.651 167.570,323.041 168.560,323.237 169.000 C 330.340 184.932,332.739 214.651,328.574 235.111 C 323.468 260.185,312.615 280.333,294.512 298.341 L 288.338 304.483 289.207 305.407 C 290.527 306.813,289.955 307.629,286.480 309.299 C 282.598 311.163,281.109 312.680,279.028 316.889 C 276.676 321.644,275.559 321.752,273.476 317.425 C 271.194 312.684,269.446 311.113,263.300 308.280 C 261.237 307.329,262.933 304.000,265.481 304.000 C 267.626 304.000,271.580 300.033,273.755 295.700 C 275.541 292.141,276.663 291.782,277.867 294.385 C 278.827 296.460,279.186 296.550,280.826 295.127 C 299.119 279.254,311.970 257.531,316.634 234.600 C 318.517 225.343,318.854 221.847,318.861 211.461 C 318.869 200.980,318.621 198.431,316.631 188.600 C 314.554 178.334,309.628 165.384,304.720 157.293 C 303.884 155.914,303.200 154.704,303.200 154.603 C 303.200 154.502,301.895 152.512,300.300 150.181 C 295.970 143.851,295.933 143.781,295.933 141.800 C 295.933 137.385,300.499 134.583,304.403 136.601 M13.879 151.757 C 13.715 152.174,13.675 152.609,13.791 152.724 C 14.155 153.089,14.476 152.491,14.324 151.731 C 14.183 151.035,14.162 151.036,13.879 151.757 M385.600 247.976 C 385.600 248.429,385.780 248.800,386.000 248.800 C 386.220 248.800,386.400 248.541,386.400 248.224 C 386.400 247.907,386.220 247.536,386.000 247.400 C 385.780 247.264,385.600 247.523,385.600 247.976 M116.801 269.601 C 118.430 272.498,119.145 273.203,122.001 274.727 C 125.210 276.440,125.137 277.673,121.734 279.273 C 119.791 280.186,117.382 282.668,116.584 284.576 C 115.384 287.448,113.954 287.466,112.447 284.628 C 111.084 282.061,109.255 280.244,106.762 278.981 C 104.080 277.622,104.092 276.277,106.800 274.875 C 109.081 273.693,111.382 271.476,112.240 269.632 C 113.800 266.276,114.926 266.268,116.801 269.601 M299.241 322.503 C 302.107 324.408,302.975 328.022,301.263 330.925 C 300.400 332.389,287.589 341.600,286.415 341.600 C 286.187 341.600,286.000 341.780,286.000 342.000 C 286.000 342.220,285.833 342.400,285.629 342.400 C 285.426 342.400,283.761 343.320,281.929 344.444 C 278.678 346.439,266.385 352.670,262.800 354.139 C 261.810 354.545,260.237 355.220,259.304 355.638 C 258.372 356.057,257.424 356.400,257.199 356.400 C 256.974 356.400,256.477 356.559,256.095 356.753 C 254.922 357.350,253.474 357.924,251.800 358.455 C 250.920 358.735,250.029 359.107,249.820 359.282 C 249.611 359.457,249.114 359.600,248.715 359.600 C 248.316 359.600,247.677 359.763,247.295 359.963 C 246.437 360.411,243.167 361.422,239.200 362.466 C 237.550 362.900,235.570 363.422,234.800 363.627 C 222.299 366.943,207.254 368.713,204.646 367.174 C 198.569 363.589,201.539 356.662,209.600 355.620 C 218.199 354.508,228.658 352.590,233.600 351.218 C 239.422 349.601,247.268 347.155,249.000 346.416 C 249.440 346.228,250.610 345.773,251.600 345.404 C 252.590 345.036,254.030 344.461,254.800 344.126 C 255.570 343.792,256.560 343.380,257.000 343.210 C 261.766 341.372,274.651 334.702,279.400 331.616 C 280.280 331.044,281.492 330.327,282.093 330.024 C 282.695 329.720,283.542 329.141,283.977 328.736 C 284.411 328.331,284.954 328.000,285.183 328.000 C 285.412 328.000,285.600 327.820,285.600 327.600 C 285.600 327.380,285.836 327.200,286.125 327.200 C 286.413 327.200,286.998 326.876,287.425 326.479 C 292.147 322.090,296.443 320.644,299.241 322.503 " stroke="none" fill="#4b63d2" fill-rule="evenodd"></path><path id="path1" d="M291.200 1.400 C 291.200 2.170,291.020 2.800,290.800 2.800 C 290.558 2.800,290.400 4.533,290.400 7.200 C 290.400 9.867,290.242 11.600,290.000 11.600 C 289.769 11.600,289.600 12.867,289.600 14.600 C 289.600 16.333,289.431 17.600,289.200 17.600 C 288.980 17.600,288.800 18.500,288.800 19.600 C 288.800 20.700,288.620 21.600,288.400 21.600 C 288.180 21.600,288.000 22.320,288.000 23.200 C 288.000 24.080,287.820 24.800,287.600 24.800 C 287.380 24.800,287.200 25.149,287.200 25.576 C 287.200 26.003,287.020 26.464,286.800 26.600 C 286.580 26.736,286.400 27.471,286.400 28.233 C 286.400 30.553,282.388 34.267,278.800 35.269 C 278.250 35.423,277.080 35.755,276.200 36.007 C 272.538 37.058,266.668 37.799,257.867 38.320 C 252.819 38.619,251.830 39.063,252.290 40.823 C 252.537 41.766,252.863 41.842,259.000 42.386 C 271.718 43.515,275.922 44.345,280.713 46.678 C 283.760 48.161,287.600 52.921,287.600 55.214 C 287.600 55.620,287.761 56.052,287.958 56.174 C 288.155 56.295,288.416 57.071,288.539 57.897 C 288.662 58.724,288.957 60.570,289.195 62.000 C 289.618 64.536,290.149 69.932,290.654 76.800 C 290.927 80.510,291.233 81.200,292.606 81.200 C 293.829 81.200,294.058 80.507,294.452 75.600 C 295.291 65.158,295.931 61.068,297.614 55.400 C 299.581 48.778,306.395 44.194,313.500 44.713 C 315.188 44.837,316.000 44.751,316.000 44.448 C 316.000 44.149,317.255 44.000,319.776 44.000 C 321.863 44.000,323.663 43.821,323.800 43.600 C 323.941 43.373,325.947 43.200,328.452 43.200 C 333.313 43.200,334.000 42.916,334.000 40.909 C 334.000 39.236,333.322 38.800,330.720 38.800 C 329.440 38.800,328.400 38.621,328.400 38.400 C 328.400 38.159,326.733 38.000,324.200 38.000 C 321.667 38.000,320.000 37.841,320.000 37.600 C 320.000 37.371,318.800 37.200,317.200 37.200 C 315.600 37.200,314.400 37.029,314.400 36.800 C 314.400 36.580,313.680 36.400,312.800 36.400 C 311.920 36.400,311.200 36.220,311.200 36.000 C 311.200 35.780,310.581 35.600,309.824 35.600 C 309.067 35.600,308.336 35.420,308.200 35.200 C 308.064 34.980,307.603 34.800,307.176 34.800 C 306.749 34.800,306.400 34.664,306.400 34.498 C 306.400 34.331,305.824 33.941,305.121 33.629 C 303.476 32.901,300.699 30.124,299.971 28.479 C 299.659 27.776,299.269 27.200,299.102 27.200 C 298.936 27.200,298.800 26.851,298.800 26.424 C 298.800 25.997,298.620 25.536,298.400 25.400 C 298.180 25.264,298.000 24.533,298.000 23.776 C 298.000 23.019,297.820 22.400,297.600 22.400 C 297.380 22.400,297.200 21.500,297.200 20.400 C 297.200 19.300,297.020 18.400,296.800 18.400 C 296.565 18.400,296.400 17.008,296.400 15.024 C 296.400 13.167,296.220 11.536,296.000 11.400 C 295.767 11.256,295.600 9.023,295.600 6.056 C 295.600 0.278,295.477 0.000,292.920 0.000 C 291.221 0.000,291.200 0.017,291.200 1.400 M215.532 84.297 C 211.862 87.798,211.873 87.649,215.049 90.849 C 218.413 94.240,218.451 94.239,221.785 90.787 C 224.906 87.553,224.980 88.068,220.831 84.100 C 218.142 81.528,218.448 81.517,215.532 84.297 M124.488 162.911 C 123.120 164.292,122.000 165.702,122.000 166.045 C 122.000 166.640,127.221 172.000,127.800 172.000 C 128.348 172.000,133.600 166.657,133.600 166.100 C 133.600 165.165,128.772 160.400,127.825 160.400 C 127.315 160.400,125.984 161.402,124.488 162.911 M250.249 227.951 C 247.070 231.154,247.058 230.998,250.766 234.535 C 253.622 237.259,253.252 237.290,256.581 234.053 C 259.797 230.926,259.799 230.771,256.689 227.688 C 253.574 224.601,253.573 224.601,250.249 227.951 M113.059 268.166 C 112.697 268.719,112.400 269.332,112.400 269.528 C 112.400 270.583,109.445 273.571,107.241 274.746 C 103.892 276.531,103.923 277.325,107.419 279.336 C 109.897 280.761,110.531 281.435,112.937 285.200 C 114.212 287.194,115.163 287.033,116.475 284.600 C 117.913 281.933,119.603 280.215,121.970 279.015 C 124.945 277.508,124.908 276.219,121.848 274.781 C 119.731 273.786,117.782 271.817,116.428 269.307 C 115.210 267.048,114.049 266.655,113.059 268.166 M275.453 293.327 C 275.109 293.587,274.200 295.060,273.432 296.600 C 271.642 300.191,269.913 301.935,266.525 303.569 C 265.026 304.292,263.530 305.018,263.200 305.182 C 261.414 306.071,262.256 307.521,265.434 309.029 C 269.468 310.943,271.626 312.974,273.185 316.322 C 274.984 320.187,274.985 320.188,276.086 320.321 C 276.975 320.429,278.800 317.924,278.800 316.598 C 278.800 314.729,283.578 310.273,287.390 308.588 C 290.752 307.101,290.552 306.064,286.544 304.212 C 282.697 302.435,280.359 300.089,278.565 296.207 C 277.155 293.155,276.492 292.542,275.453 293.327 M149.862 319.531 C 149.459 319.976,149.200 320.945,149.200 322.004 C 149.200 323.638,148.989 325.772,147.957 334.600 C 146.628 345.962,142.758 352.730,136.800 354.112 C 136.250 354.240,135.080 354.550,134.200 354.802 C 130.256 355.931,124.904 356.635,116.326 357.152 C 111.145 357.465,110.000 357.835,110.000 359.200 C 110.000 360.329,110.813 360.685,114.000 360.951 C 134.982 362.704,140.743 364.662,144.162 371.201 C 146.201 375.100,147.790 383.404,146.740 384.675 C 146.317 385.188,146.309 385.367,146.700 385.498 C 147.062 385.620,147.200 386.972,147.200 390.410 C 147.200 393.140,147.370 395.258,147.600 395.400 C 147.820 395.536,148.000 396.627,148.000 397.824 L 148.000 400.000 149.767 400.000 C 152.798 400.000,152.800 399.998,152.800 395.581 C 152.800 393.224,152.971 391.541,153.227 391.383 C 153.499 391.215,153.615 389.504,153.545 386.660 C 153.418 381.447,153.687 379.681,155.460 374.080 C 157.989 366.090,163.643 363.258,179.600 361.991 C 189.557 361.201,190.000 361.143,190.603 360.540 C 191.040 360.103,191.092 359.745,190.798 359.197 C 190.359 358.376,190.000 358.312,181.800 357.593 C 160.397 355.717,155.763 352.132,153.632 335.800 C 153.086 331.621,152.400 323.787,152.400 321.739 C 152.400 319.369,151.062 318.205,149.862 319.531 " stroke="none" fill="#f9b60a" fill-rule="evenodd"></path><path id="path2" d="M199.400 32.212 C 190.924 32.742,185.802 33.243,181.400 33.974 C 180.080 34.193,177.920 34.550,176.600 34.769 C 175.280 34.987,172.580 35.518,170.600 35.949 C 168.620 36.380,166.010 36.947,164.800 37.210 C 163.590 37.473,162.240 37.828,161.800 37.999 C 161.360 38.169,160.190 38.534,159.200 38.808 C 155.753 39.765,154.595 40.113,153.800 40.429 C 153.360 40.604,152.280 40.964,151.400 41.229 C 149.601 41.771,148.134 42.323,147.105 42.847 C 146.723 43.041,146.136 43.200,145.800 43.200 C 145.207 43.200,144.784 43.366,142.905 44.338 C 142.413 44.592,141.738 44.800,141.405 44.800 C 141.072 44.800,140.800 44.980,140.800 45.200 C 140.800 45.420,140.528 45.600,140.195 45.600 C 139.862 45.600,139.277 45.764,138.895 45.965 C 138.513 46.166,137.120 46.817,135.800 47.411 C 127.654 51.077,126.800 51.807,126.800 55.111 C 126.800 58.408,128.759 60.210,132.297 60.170 C 133.952 60.151,135.012 59.963,135.110 59.670 C 135.196 59.411,135.612 59.200,136.033 59.200 C 136.455 59.200,136.800 59.020,136.800 58.800 C 136.800 58.580,137.053 58.400,137.362 58.400 C 137.671 58.400,138.616 58.057,139.462 57.637 C 140.308 57.218,141.675 56.588,142.500 56.237 C 143.325 55.887,144.585 55.349,145.300 55.043 C 151.085 52.566,161.863 49.028,167.578 47.730 C 184.566 43.872,191.348 43.100,208.400 43.085 C 219.972 43.075,223.453 43.258,232.600 44.357 C 238.519 45.068,241.200 43.558,241.200 39.511 C 241.200 35.788,239.273 34.405,233.000 33.624 C 231.020 33.377,228.050 33.007,226.400 32.801 C 224.750 32.595,220.790 32.324,217.600 32.200 C 214.410 32.075,210.900 31.909,209.800 31.831 C 208.700 31.752,204.020 31.924,199.400 32.212 M192.200 139.631 C 186.268 140.645,184.643 141.020,180.837 142.256 C 149.034 152.583,131.592 187.772,142.432 219.738 C 157.395 263.863,216.950 275.266,246.200 239.607 C 247.520 237.998,248.983 236.220,249.452 235.657 L 250.303 234.632 251.765 235.916 C 254.283 238.126,253.754 237.317,250.994 234.735 C 247.028 231.025,247.045 231.179,250.249 227.951 C 253.578 224.596,253.623 224.594,256.712 227.711 C 259.791 230.818,259.789 230.934,256.605 234.025 C 255.178 235.411,254.103 236.637,254.216 236.750 C 254.329 236.863,255.587 235.800,257.011 234.389 C 260.231 231.198,260.281 230.611,257.557 227.958 C 255.210 225.672,255.208 226.285,257.574 219.493 C 264.471 199.687,260.272 177.223,246.610 160.846 C 243.364 156.954,240.614 154.384,236.000 150.926 C 224.214 142.094,205.710 137.323,192.200 139.631 M127.858 160.277 C 128.869 160.475,133.600 165.272,133.600 166.100 C 133.600 166.413,132.358 167.868,130.839 169.334 C 129.320 170.800,128.200 172.000,128.350 172.000 C 128.856 172.000,134.000 166.584,134.000 166.051 C 134.000 165.108,128.743 159.995,127.834 160.054 C 127.015 160.108,127.015 160.112,127.858 160.277 M123.800 168.778 C 125.970 171.253,126.819 172.061,127.111 171.930 C 127.270 171.858,126.320 170.812,125.000 169.604 C 123.680 168.397,123.140 168.025,123.800 168.778 M148.696 323.150 C 148.533 323.893,148.422 325.423,148.449 326.550 L 148.498 328.600 148.856 326.200 C 149.292 323.286,149.170 320.981,148.696 323.150 M294.600 322.554 C 293.165 323.091,290.800 324.484,290.800 324.792 C 290.800 324.912,290.080 325.456,289.200 326.000 C 288.320 326.544,287.600 327.126,287.600 327.294 C 287.600 327.462,287.364 327.600,287.075 327.600 C 286.787 327.600,286.164 327.960,285.692 328.400 C 285.220 328.840,284.674 329.200,284.479 329.200 C 284.284 329.200,283.798 329.560,283.400 330.000 C 283.002 330.440,282.530 330.800,282.350 330.800 C 282.171 330.800,280.804 331.588,279.312 332.552 C 275.089 335.280,266.774 339.652,260.500 342.444 C 259.565 342.860,257.945 343.583,256.900 344.051 C 255.855 344.519,254.640 345.034,254.200 345.197 C 252.976 345.650,251.079 346.453,250.305 346.847 C 249.923 347.041,249.336 347.200,249.000 347.200 C 248.664 347.200,248.077 347.371,247.695 347.581 C 246.890 348.022,243.489 349.154,239.200 350.407 C 237.550 350.889,235.750 351.432,235.200 351.615 C 233.798 352.080,227.036 353.609,224.400 354.057 C 223.190 354.263,221.300 354.605,220.200 354.817 C 216.664 355.500,213.080 355.997,209.814 356.258 C 202.525 356.841,199.554 363.636,205.239 366.722 C 207.271 367.825,223.994 365.714,233.400 363.167 C 234.280 362.929,235.540 362.647,236.200 362.540 C 236.860 362.433,237.760 362.203,238.200 362.028 C 239.965 361.328,241.902 360.800,242.705 360.800 C 243.171 360.800,243.664 360.620,243.800 360.400 C 243.936 360.180,244.476 360.000,245.000 360.000 C 245.524 360.000,246.064 359.820,246.200 359.600 C 246.336 359.380,246.876 359.200,247.400 359.200 C 247.924 359.200,248.464 359.020,248.600 358.800 C 248.736 358.580,249.199 358.400,249.629 358.400 C 250.059 358.400,250.768 358.220,251.205 358.000 C 251.642 357.780,252.358 357.420,252.795 357.200 C 253.232 356.980,253.864 356.800,254.200 356.800 C 254.536 356.800,255.123 356.641,255.505 356.447 C 255.887 356.252,256.650 355.911,257.200 355.687 C 264.181 352.854,280.344 344.962,281.200 343.968 C 281.310 343.840,281.985 343.481,282.700 343.170 C 283.415 342.859,284.000 342.469,284.000 342.302 C 284.000 342.136,284.190 342.000,284.422 342.000 C 285.149 342.000,298.086 333.114,299.681 331.519 C 303.546 327.654,299.596 320.684,294.600 322.554 M152.645 325.800 C 152.790 327.560,152.974 329.075,153.054 329.167 C 153.409 329.571,153.146 323.737,152.785 323.200 C 152.508 322.788,152.465 323.601,152.645 325.800 M148.120 331.200 C 148.120 332.410,148.195 332.905,148.287 332.300 C 148.378 331.695,148.378 330.705,148.287 330.100 C 148.195 329.495,148.120 329.990,148.120 331.200 M153.247 332.580 C 153.217 334.088,153.340 334.820,153.581 334.579 C 153.812 334.348,153.830 333.409,153.628 332.199 L 153.294 330.200 153.247 332.580 " stroke="none" fill="#142c7c" fill-rule="evenodd"></path><path id="path3" d="M201.000 31.620 C 192.579 32.022,183.420 33.050,176.400 34.382 C 170.558 35.490,169.577 35.710,169.741 35.874 C 169.840 35.973,170.974 35.843,172.261 35.585 C 181.826 33.661,187.622 32.959,199.671 32.266 C 210.689 31.632,221.730 32.122,234.800 33.825 C 237.445 34.170,239.072 34.904,240.359 36.334 C 241.297 37.377,241.305 37.379,240.718 36.400 C 239.582 34.507,238.001 33.814,233.577 33.270 C 231.280 32.988,228.140 32.594,226.600 32.395 C 225.060 32.197,221.460 31.933,218.600 31.809 C 215.740 31.685,212.140 31.519,210.600 31.439 C 209.060 31.360,204.740 31.441,201.000 31.620 M166.800 36.400 C 166.036 36.894,166.858 36.894,168.400 36.400 L 169.400 36.080 168.400 36.046 C 167.850 36.027,167.130 36.187,166.800 36.400 M163.600 37.200 C 162.836 37.694,163.658 37.694,165.200 37.200 L 166.200 36.880 165.200 36.846 C 164.650 36.827,163.930 36.987,163.600 37.200 M160.600 38.000 C 159.829 38.331,159.831 38.345,160.676 38.372 C 161.158 38.387,161.664 38.220,161.800 38.000 C 162.092 37.527,161.701 37.527,160.600 38.000 M241.314 39.400 C 241.317 40.500,241.395 40.903,241.487 40.295 C 241.579 39.686,241.577 38.786,241.482 38.295 C 241.387 37.803,241.311 38.300,241.314 39.400 M258.500 38.287 C 259.105 38.378,260.095 38.378,260.700 38.287 C 261.305 38.195,260.810 38.120,259.600 38.120 C 258.390 38.120,257.895 38.195,258.500 38.287 M158.000 38.800 C 157.467 39.145,157.467 39.188,158.000 39.188 C 158.330 39.188,158.870 39.013,159.200 38.800 C 159.733 38.455,159.733 38.412,159.200 38.412 C 158.870 38.412,158.330 38.587,158.000 38.800 M155.200 39.600 C 154.667 39.945,154.667 39.988,155.200 39.988 C 155.530 39.988,156.070 39.813,156.400 39.600 C 156.933 39.255,156.933 39.212,156.400 39.212 C 156.070 39.212,155.530 39.387,155.200 39.600 M150.400 41.200 C 149.867 41.545,149.867 41.588,150.400 41.588 C 150.730 41.588,151.270 41.413,151.600 41.200 C 152.133 40.855,152.133 40.812,151.600 40.812 C 151.270 40.812,150.730 40.987,150.400 41.200 M239.900 42.866 C 238.600 44.325,238.449 44.841,239.637 43.766 C 240.374 43.100,241.422 41.574,241.114 41.616 C 241.051 41.624,240.505 42.187,239.900 42.866 M254.700 42.282 C 255.195 42.378,256.005 42.378,256.500 42.282 C 256.995 42.187,256.590 42.109,255.600 42.109 C 254.610 42.109,254.205 42.187,254.700 42.282 M195.400 43.187 C 194.960 43.370,197.660 43.422,201.400 43.305 C 205.140 43.187,208.275 43.026,208.367 42.946 C 208.718 42.639,196.159 42.873,195.400 43.187 M209.233 42.945 C 209.325 43.025,212.370 43.183,216.000 43.295 C 219.630 43.408,222.150 43.360,221.600 43.190 C 220.626 42.888,208.902 42.656,209.233 42.945 M263.505 43.083 C 264.002 43.179,264.722 43.175,265.105 43.075 C 265.487 42.975,265.080 42.896,264.200 42.901 C 263.320 42.905,263.007 42.987,263.505 43.083 M187.600 44.000 C 186.834 44.495,187.873 44.504,190.200 44.023 L 191.800 43.692 190.000 43.652 C 189.010 43.630,187.930 43.787,187.600 44.000 M225.233 43.750 C 225.325 43.832,226.480 44.020,227.800 44.168 C 229.496 44.357,230.024 44.314,229.600 44.024 C 229.061 43.654,224.832 43.389,225.233 43.750 M182.000 44.800 C 181.261 45.277,182.324 45.277,184.200 44.800 L 185.400 44.495 184.000 44.453 C 183.230 44.431,182.330 44.587,182.000 44.800 M232.600 44.810 C 234.227 45.210,237.293 45.256,237.870 44.889 C 238.128 44.725,236.778 44.573,234.870 44.553 C 232.633 44.529,231.826 44.620,232.600 44.810 M177.600 45.600 C 176.842 46.090,178.070 46.090,179.600 45.600 C 180.580 45.286,180.576 45.279,179.400 45.246 C 178.740 45.227,177.930 45.387,177.600 45.600 M136.400 46.643 C 135.190 47.212,133.030 48.217,131.600 48.875 C 128.808 50.161,127.772 50.925,127.101 52.196 C 126.848 52.675,127.145 52.508,127.838 51.781 C 128.477 51.110,130.260 49.976,131.800 49.260 C 133.340 48.544,135.292 47.608,136.138 47.179 C 136.984 46.751,137.918 46.400,138.214 46.400 C 138.510 46.400,138.864 46.220,139.000 46.000 C 139.387 45.374,138.775 45.525,136.400 46.643 M173.600 46.400 C 172.805 46.914,173.804 46.914,175.000 46.400 L 175.800 46.056 175.000 46.034 C 174.560 46.022,173.930 46.187,173.600 46.400 M170.000 47.200 C 169.205 47.714,170.204 47.714,171.400 47.200 L 172.200 46.856 171.400 46.834 C 170.960 46.822,170.330 46.987,170.000 47.200 M164.010 48.644 C 162.146 49.195,160.541 49.726,160.444 49.823 C 160.073 50.194,161.324 49.972,163.716 49.243 C 165.082 48.826,166.830 48.304,167.600 48.083 C 168.373 47.861,168.642 47.673,168.200 47.662 C 167.760 47.651,165.875 48.093,164.010 48.644 M283.600 49.000 C 284.346 49.770,285.047 50.400,285.157 50.400 C 285.267 50.400,284.746 49.770,284.000 49.000 C 283.254 48.230,282.553 47.600,282.443 47.600 C 282.333 47.600,282.854 48.230,283.600 49.000 M156.000 51.037 C 152.485 52.212,147.310 54.174,144.904 55.245 C 143.972 55.660,143.037 56.000,142.828 56.000 C 142.619 56.000,142.335 56.182,142.197 56.405 C 142.060 56.627,142.814 56.466,143.874 56.046 C 144.933 55.626,146.610 54.977,147.600 54.604 C 148.590 54.231,149.760 53.779,150.200 53.599 C 151.511 53.064,152.412 52.739,156.400 51.367 C 158.490 50.648,159.930 50.054,159.600 50.047 C 159.270 50.040,157.650 50.486,156.000 51.037 M126.514 55.000 C 126.517 56.100,126.595 56.503,126.687 55.895 C 126.779 55.286,126.777 54.386,126.682 53.895 C 126.587 53.403,126.511 53.900,126.514 55.000 M139.470 57.479 C 138.848 57.805,138.426 58.159,138.532 58.265 C 138.638 58.371,139.416 58.093,140.262 57.647 C 141.108 57.200,141.530 56.846,141.200 56.860 C 140.870 56.874,140.091 57.152,139.470 57.479 M126.800 57.483 C 126.800 57.685,127.340 58.368,128.000 59.000 C 128.660 59.632,129.200 60.045,129.200 59.917 C 129.200 59.789,128.660 59.107,128.000 58.400 C 127.340 57.693,126.800 57.281,126.800 57.483 M130.138 60.494 C 130.726 60.868,133.163 60.837,134.171 60.442 C 134.630 60.262,133.878 60.152,132.309 60.170 C 130.861 60.186,129.884 60.332,130.138 60.494 M295.309 66.800 C 295.309 67.790,295.387 68.195,295.482 67.700 C 295.578 67.205,295.578 66.395,295.482 65.900 C 295.387 65.405,295.309 65.810,295.309 66.800 M289.714 67.400 C 289.717 68.500,289.795 68.903,289.887 68.295 C 289.979 67.686,289.977 66.786,289.882 66.295 C 289.787 65.803,289.711 66.300,289.714 67.400 M102.081 67.219 C 101.304 67.531,98.657 69.333,98.000 69.998 C 97.890 70.109,96.990 70.825,96.000 71.588 C 91.429 75.114,81.244 84.942,77.749 89.199 C 77.117 89.969,76.207 91.000,75.727 91.490 C 75.247 91.980,74.348 93.061,73.730 93.891 C 73.111 94.721,72.514 95.490,72.402 95.600 C 71.243 96.746,63.719 107.654,61.779 111.000 C 61.142 112.100,60.307 113.540,59.923 114.200 C 55.262 122.229,48.607 138.176,46.318 146.800 C 45.965 148.130,45.759 148.946,44.778 152.900 C 43.895 156.459,43.238 159.695,42.361 164.800 C 40.166 177.586,40.182 199.950,42.394 212.500 C 43.257 217.394,43.572 219.063,43.957 220.800 C 44.687 224.090,45.053 225.499,46.373 230.100 C 46.578 230.815,46.872 231.850,47.026 232.400 C 47.443 233.885,50.223 241.872,51.203 244.400 C 53.147 249.413,60.202 263.623,60.900 263.933 C 61.065 264.007,61.200 264.225,61.200 264.420 C 61.200 265.356,71.279 280.123,74.197 283.462 C 74.418 283.715,75.410 284.872,76.400 286.032 C 84.070 295.015,95.440 305.592,102.600 310.403 C 103.700 311.142,104.690 311.861,104.800 312.000 C 105.776 313.234,118.276 320.637,124.600 323.726 C 125.920 324.371,127.692 325.236,128.538 325.649 C 129.384 326.062,130.329 326.400,130.638 326.400 C 130.947 326.400,131.200 326.580,131.200 326.800 C 131.200 327.020,131.472 327.200,131.805 327.200 C 132.138 327.200,132.723 327.359,133.105 327.553 C 134.040 328.029,135.507 328.618,137.200 329.200 C 137.970 329.464,139.050 329.867,139.600 330.094 C 141.469 330.866,142.198 331.119,144.513 331.801 C 145.785 332.176,147.090 332.747,147.413 333.070 C 147.929 333.586,148.002 333.473,148.017 332.129 C 148.048 329.492,148.709 322.632,149.004 321.900 C 149.225 321.351,149.081 321.200,148.341 321.200 C 146.528 321.200,134.387 316.363,128.600 313.335 C 123.223 310.521,121.404 309.515,120.385 308.790 C 119.775 308.355,119.158 308.000,119.013 308.000 C 118.453 308.000,107.992 300.686,103.978 297.488 C 97.519 292.343,89.776 284.692,83.039 276.800 C 82.570 276.250,81.745 275.170,81.206 274.400 C 80.667 273.630,80.002 272.768,79.727 272.485 C 79.453 272.202,78.913 271.437,78.528 270.785 C 78.143 270.133,77.686 269.600,77.514 269.600 C 77.341 269.600,77.200 269.345,77.200 269.033 C 77.200 268.722,77.055 268.407,76.877 268.333 C 75.221 267.651,64.993 249.135,62.054 241.500 C 61.863 241.005,61.503 240.105,61.254 239.500 C 61.004 238.895,60.599 237.905,60.353 237.300 C 60.108 236.695,59.748 235.887,59.553 235.505 C 59.359 235.123,59.200 234.459,59.200 234.029 C 59.200 233.599,59.020 233.136,58.800 233.000 C 58.580 232.864,58.400 232.324,58.400 231.800 C 58.400 231.276,58.241 230.749,58.046 230.629 C 57.851 230.508,57.596 229.913,57.479 229.305 C 57.362 228.697,57.085 227.570,56.865 226.800 C 56.644 226.030,56.172 224.230,55.816 222.800 C 55.459 221.370,54.993 219.570,54.779 218.800 C 50.977 205.107,50.622 180.509,53.970 162.600 C 55.366 155.131,57.744 145.996,58.837 143.905 C 59.037 143.523,59.200 142.936,59.200 142.600 C 59.200 142.264,59.359 141.677,59.553 141.295 C 59.748 140.913,60.084 140.150,60.300 139.600 C 60.516 139.050,60.897 138.105,61.146 137.500 C 61.396 136.895,61.804 135.905,62.054 135.300 C 62.303 134.695,62.648 133.840,62.821 133.400 C 65.490 126.600,76.081 107.931,78.365 106.000 C 78.496 105.890,79.409 104.720,80.395 103.400 C 86.482 95.252,95.712 85.949,104.801 78.800 C 108.613 75.802,109.200 74.965,109.200 72.533 C 109.200 68.379,105.701 65.767,102.081 67.219 M294.524 74.600 C 294.526 75.920,294.601 76.412,294.690 75.693 C 294.779 74.974,294.777 73.894,294.686 73.293 C 294.595 72.692,294.522 73.280,294.524 74.600 M290.528 77.200 C 290.528 78.630,290.601 79.215,290.689 78.500 C 290.778 77.785,290.778 76.615,290.689 75.900 C 290.601 75.185,290.528 75.770,290.528 77.200 M190.800 118.473 C 166.089 121.411,143.298 135.725,130.609 156.276 L 128.443 159.784 131.222 162.649 C 134.618 166.152,134.617 166.010,131.290 169.311 C 127.599 172.974,127.321 172.942,123.500 168.428 C 121.514 166.082,121.568 165.805,124.589 162.811 C 126.013 161.400,127.106 160.173,127.019 160.085 C 126.650 159.716,121.600 165.241,121.600 166.014 C 121.600 166.470,122.109 167.388,122.731 168.054 L 123.863 169.264 122.743 172.428 C 121.287 176.543,119.790 182.280,119.255 185.800 C 118.144 193.104,118.000 194.722,117.999 199.877 C 117.996 239.690,146.710 274.040,185.600 280.746 C 191.886 281.830,193.837 282.000,200.000 282.000 C 206.163 282.000,208.114 281.830,214.400 280.746 C 244.100 275.625,269.056 253.799,278.139 225.000 C 279.791 219.760,280.536 216.292,281.589 208.923 C 282.406 203.206,281.916 190.547,280.656 184.800 C 271.150 141.462,233.179 113.433,190.800 118.473 M207.723 139.621 C 218.326 141.172,228.310 145.164,236.000 150.926 C 240.614 154.384,243.364 156.954,246.610 160.846 C 260.272 177.223,264.471 199.687,257.574 219.493 C 255.208 226.285,255.210 225.672,257.557 227.958 C 260.271 230.601,260.226 231.214,257.100 234.256 C 253.898 237.372,253.547 237.481,251.751 235.904 L 250.303 234.632 249.452 235.657 C 248.983 236.220,247.520 237.998,246.200 239.607 C 222.942 267.961,176.852 267.660,153.236 239.000 C 126.018 205.971,140.455 155.369,180.837 142.256 C 184.643 141.020,186.268 140.645,192.200 139.631 C 195.096 139.136,204.370 139.130,207.723 139.621 M279.883 298.335 C 280.923 300.272,283.569 302.571,286.406 304.003 C 287.766 304.690,288.780 305.091,288.659 304.895 C 288.538 304.700,287.254 303.938,285.806 303.203 C 283.364 301.963,281.661 300.467,279.883 297.996 C 279.193 297.038,279.193 297.051,279.883 298.335 M270.000 312.200 C 270.746 312.970,271.447 313.600,271.557 313.600 C 271.667 313.600,271.146 312.970,270.400 312.200 C 269.654 311.430,268.953 310.800,268.843 310.800 C 268.733 310.800,269.254 311.430,270.000 312.200 M243.000 318.225 C 237.338 320.410,230.161 322.800,229.264 322.800 C 228.815 322.800,228.348 322.960,228.227 323.156 C 228.106 323.351,227.421 323.608,226.704 323.726 C 225.476 323.927,223.509 324.367,219.800 325.267 C 205.378 328.770,182.726 329.094,166.600 326.029 C 158.233 324.439,153.373 323.112,152.662 322.223 C 152.473 321.986,152.459 322.152,152.629 322.600 C 152.969 323.493,153.661 331.399,153.697 334.800 C 153.710 336.010,153.795 336.505,153.887 335.900 C 154.087 334.575,153.646 334.585,159.448 335.774 C 172.004 338.349,178.179 338.965,191.200 338.942 C 202.562 338.922,205.264 338.720,215.400 337.138 C 224.113 335.777,239.710 331.876,240.980 330.740 C 241.189 330.553,241.686 330.400,242.085 330.400 C 242.484 330.400,243.123 330.241,243.505 330.047 C 244.150 329.719,245.013 329.354,247.300 328.441 C 251.477 326.774,252.595 325.699,253.005 322.958 C 253.771 317.827,249.396 315.758,243.000 318.225 M294.000 322.400 C 293.467 322.745,293.467 322.788,294.000 322.788 C 294.330 322.788,294.870 322.613,295.200 322.400 C 295.733 322.055,295.733 322.012,295.200 322.012 C 294.870 322.012,294.330 322.187,294.000 322.400 M297.000 322.400 C 298.101 322.873,298.492 322.873,298.200 322.400 C 298.064 322.180,297.558 322.013,297.076 322.028 C 296.231 322.055,296.229 322.069,297.000 322.400 M299.218 323.313 C 300.589 324.393,301.200 325.803,301.200 327.889 C 301.200 330.656,300.187 331.677,291.989 337.168 C 286.155 341.075,283.983 342.652,285.800 341.662 C 290.158 339.285,299.313 332.723,300.571 331.074 C 302.433 328.632,301.372 322.752,299.080 322.813 C 298.778 322.821,298.830 323.007,299.218 323.313 M285.400 328.066 C 280.453 331.487,277.479 333.337,273.000 335.782 C 271.900 336.382,270.820 337.063,270.600 337.294 C 269.990 337.934,276.245 334.528,279.312 332.550 C 280.804 331.587,282.171 330.800,282.350 330.800 C 282.530 330.800,283.002 330.440,283.400 330.000 C 283.798 329.560,284.284 329.200,284.479 329.200 C 284.674 329.200,285.220 328.840,285.692 328.400 C 286.164 327.960,286.787 327.600,287.075 327.600 C 287.364 327.600,287.600 327.462,287.600 327.294 C 287.600 327.126,288.320 326.544,289.200 326.000 C 290.080 325.456,290.800 324.874,290.800 324.706 C 290.800 324.301,291.263 324.012,285.400 328.066 M265.065 339.847 C 264.440 340.186,264.006 340.539,264.100 340.633 C 264.287 340.820,266.800 339.646,266.800 339.371 C 266.800 339.062,266.218 339.222,265.065 339.847 M282.100 343.344 C 281.605 343.589,281.200 343.932,281.200 344.105 C 281.200 344.279,281.740 344.141,282.400 343.800 C 283.060 343.459,283.600 343.094,283.600 342.990 C 283.600 342.721,283.139 342.830,282.100 343.344 M256.200 343.978 C 255.320 344.395,254.797 344.750,255.039 344.768 C 255.528 344.804,258.000 343.638,258.000 343.371 C 258.000 343.130,257.976 343.138,256.200 343.978 M279.200 345.233 L 278.200 346.048 279.500 345.414 C 280.215 345.065,280.800 344.694,280.800 344.590 C 280.800 344.192,280.163 344.448,279.200 345.233 M250.000 346.400 C 248.763 346.919,248.474 347.162,249.076 347.178 C 249.558 347.190,250.064 347.020,250.200 346.800 C 250.336 346.580,250.786 346.400,251.200 346.400 C 251.614 346.400,252.064 346.220,252.200 346.000 C 252.544 345.443,252.080 345.527,250.000 346.400 M270.800 349.424 C 264.381 352.629,260.555 354.400,260.049 354.400 C 259.828 354.400,259.534 354.584,259.395 354.808 C 259.256 355.033,259.921 354.918,260.871 354.553 C 263.472 353.554,276.400 347.289,276.400 347.028 C 276.400 346.655,276.020 346.817,270.800 349.424 M244.800 348.193 C 240.772 349.636,237.398 350.635,232.502 351.835 C 230.028 352.441,228.085 353.018,228.183 353.116 C 228.437 353.370,233.740 352.106,238.000 350.776 C 238.550 350.605,240.890 349.881,243.200 349.168 C 245.510 348.455,247.571 347.720,247.780 347.536 C 248.372 347.012,247.655 347.171,244.800 348.193 M141.978 350.700 L 140.600 352.200 142.100 350.822 C 143.496 349.538,143.784 349.200,143.478 349.200 C 143.412 349.200,142.737 349.875,141.978 350.700 M225.000 353.600 L 224.200 353.944 225.000 353.932 C 225.440 353.926,226.250 353.776,226.800 353.600 L 227.800 353.280 226.800 353.268 C 226.250 353.262,225.440 353.411,225.000 353.600 M220.600 354.400 C 219.867 354.715,219.884 354.746,220.800 354.766 C 221.350 354.778,222.070 354.613,222.400 354.400 C 223.187 353.891,221.784 353.891,220.600 354.400 M216.000 355.200 C 215.025 355.512,215.030 355.521,216.200 355.532 C 216.860 355.538,217.760 355.389,218.200 355.200 C 219.294 354.730,217.467 354.730,216.000 355.200 M209.600 356.000 C 208.215 356.292,208.219 356.295,210.000 356.307 C 210.990 356.315,212.250 356.176,212.800 356.000 C 214.154 355.566,211.660 355.566,209.600 356.000 M125.905 356.283 C 126.402 356.379,127.122 356.375,127.505 356.275 C 127.887 356.175,127.480 356.096,126.600 356.101 C 125.720 356.105,125.407 356.187,125.905 356.283 M115.700 357.091 C 116.525 357.178,117.875 357.178,118.700 357.091 C 119.525 357.005,118.850 356.934,117.200 356.934 C 115.550 356.934,114.875 357.005,115.700 357.091 M253.000 357.200 C 252.708 357.673,253.099 357.673,254.200 357.200 C 254.971 356.869,254.969 356.855,254.124 356.828 C 253.642 356.813,253.136 356.980,253.000 357.200 M203.436 358.431 C 202.866 359.108,202.411 359.963,202.425 360.331 C 202.442 360.762,202.592 360.645,202.849 360.000 C 203.069 359.450,203.629 358.595,204.094 358.100 C 204.559 357.605,204.834 357.200,204.705 357.200 C 204.576 357.200,204.005 357.754,203.436 358.431 M183.905 357.883 C 184.402 357.979,185.122 357.975,185.505 357.875 C 185.887 357.775,185.480 357.696,184.600 357.701 C 183.720 357.705,183.407 357.787,183.905 357.883 M246.200 359.600 C 245.908 360.073,246.299 360.073,247.400 359.600 C 248.171 359.269,248.169 359.255,247.324 359.228 C 246.842 359.213,246.336 359.380,246.200 359.600 M243.800 360.400 C 243.508 360.873,243.899 360.873,245.000 360.400 C 245.771 360.069,245.769 360.055,244.924 360.028 C 244.442 360.013,243.936 360.180,243.800 360.400 M112.307 361.090 C 113.026 361.179,114.106 361.177,114.707 361.086 C 115.308 360.995,114.720 360.922,113.400 360.924 C 112.080 360.926,111.588 361.001,112.307 361.090 M240.800 361.200 C 240.005 361.714,241.004 361.714,242.200 361.200 L 243.000 360.856 242.200 360.834 C 241.760 360.822,241.130 360.987,240.800 361.200 M120.900 361.887 C 121.505 361.978,122.495 361.978,123.100 361.887 C 123.705 361.795,123.210 361.720,122.000 361.720 C 120.790 361.720,120.295 361.795,120.900 361.887 M181.900 361.882 C 182.395 361.978,183.205 361.978,183.700 361.882 C 184.195 361.787,183.790 361.709,182.800 361.709 C 181.810 361.709,181.405 361.787,181.900 361.882 M238.200 362.000 C 237.908 362.473,238.299 362.473,239.400 362.000 C 240.171 361.669,240.169 361.655,239.324 361.628 C 238.842 361.613,238.336 361.780,238.200 362.000 M234.800 362.800 C 234.005 363.314,235.004 363.314,236.200 362.800 L 237.000 362.456 236.200 362.434 C 235.760 362.422,235.130 362.587,234.800 362.800 M202.416 363.686 C 202.357 366.261,206.230 368.107,210.500 367.539 C 216.214 366.778,217.576 366.488,214.200 366.751 C 205.780 367.406,204.220 367.052,202.961 364.200 C 202.646 363.487,202.425 363.278,202.416 363.686 M231.800 363.600 L 231.000 363.944 231.800 363.966 C 232.240 363.978,232.870 363.813,233.200 363.600 C 233.995 363.086,232.996 363.086,231.800 363.600 M227.800 364.400 L 226.600 364.705 227.800 364.725 C 228.460 364.735,229.360 364.589,229.800 364.400 L 230.600 364.056 229.800 364.075 C 229.360 364.086,228.460 364.232,227.800 364.400 M223.800 365.200 L 222.600 365.505 223.800 365.525 C 224.460 365.535,225.360 365.389,225.800 365.200 L 226.600 364.856 225.800 364.875 C 225.360 364.886,224.460 365.032,223.800 365.200 M219.000 366.000 L 217.400 366.286 219.000 366.303 C 219.880 366.313,221.050 366.176,221.600 366.000 L 222.600 365.680 221.600 365.697 C 221.050 365.706,219.880 365.842,219.000 366.000 " stroke="none" fill="#1c3494" fill-rule="evenodd"></path><path id="path4" d="M195.000 31.604 C 194.120 31.764,196.550 31.804,200.400 31.692 C 204.250 31.581,207.475 31.424,207.567 31.345 C 207.875 31.078,196.618 31.310,195.000 31.604 M210.433 31.345 C 210.525 31.425,213.570 31.583,217.200 31.697 C 221.065 31.818,222.888 31.774,221.600 31.591 C 219.391 31.278,210.121 31.073,210.433 31.345 M187.000 32.400 L 185.800 32.705 187.000 32.723 C 187.660 32.733,189.010 32.597,190.000 32.420 L 191.800 32.100 190.000 32.097 C 189.010 32.096,187.660 32.232,187.000 32.400 M226.800 32.420 C 229.322 32.869,231.423 32.856,230.000 32.400 C 229.450 32.224,228.100 32.084,227.000 32.090 L 225.000 32.100 226.800 32.420 M181.000 33.200 C 179.234 33.649,181.245 33.669,183.400 33.223 L 185.000 32.892 183.600 32.893 C 182.830 32.894,181.660 33.032,181.000 33.200 M233.400 33.223 C 234.280 33.405,235.540 33.544,236.200 33.531 C 237.244 33.511,237.192 33.465,235.800 33.177 C 234.920 32.995,233.660 32.856,233.000 32.869 C 231.956 32.889,232.008 32.935,233.400 33.223 M176.400 34.000 L 175.400 34.320 176.400 34.320 C 176.950 34.320,177.850 34.176,178.400 34.000 L 179.400 33.680 178.400 33.680 C 177.850 33.680,176.950 33.824,176.400 34.000 M238.704 34.398 C 239.421 34.835,240.365 35.779,240.802 36.496 C 241.239 37.213,241.597 37.530,241.598 37.200 C 241.599 36.452,240.089 34.679,238.926 34.063 C 237.475 33.294,237.307 33.546,238.704 34.398 M172.400 34.800 L 171.400 35.120 172.400 35.132 C 172.950 35.138,173.760 34.989,174.200 34.800 L 175.000 34.456 174.200 34.468 C 173.760 34.474,172.950 34.624,172.400 34.800 M168.400 35.600 L 167.400 35.920 168.400 35.920 C 168.950 35.920,169.850 35.776,170.400 35.600 L 171.400 35.280 170.400 35.280 C 169.850 35.280,168.950 35.424,168.400 35.600 M165.200 36.400 L 164.200 36.720 165.200 36.754 C 165.750 36.773,166.470 36.613,166.800 36.400 C 167.564 35.906,166.742 35.906,165.200 36.400 M162.600 37.002 C 162.380 37.078,160.850 37.538,159.200 38.024 C 155.483 39.119,146.880 41.917,145.800 42.383 C 145.360 42.572,144.659 42.838,144.243 42.973 C 143.826 43.108,143.578 43.311,143.691 43.424 C 143.804 43.537,144.864 43.247,146.048 42.780 C 150.051 41.200,161.397 37.604,162.411 37.594 C 162.735 37.591,163.270 37.413,163.600 37.200 C 164.231 36.792,163.579 36.663,162.600 37.002 M241.701 39.400 C 241.705 40.280,241.787 40.593,241.883 40.095 C 241.979 39.598,241.975 38.878,241.875 38.495 C 241.775 38.113,241.696 38.520,241.701 39.400 M240.716 42.417 C 239.498 44.539,237.784 45.280,234.600 45.063 C 232.900 44.947,232.114 45.004,232.600 45.208 C 235.351 46.363,239.949 44.938,241.237 42.531 C 241.972 41.158,241.498 41.055,240.716 42.417 M84.689 42.644 C 84.590 42.744,84.154 42.893,83.721 42.977 C 83.288 43.060,82.377 43.685,81.697 44.364 C 81.018 45.044,80.167 45.600,79.807 45.600 C 79.447 45.600,79.266 45.783,79.405 46.007 C 79.543 46.232,79.101 46.649,78.422 46.934 C 77.742 47.220,77.310 47.576,77.460 47.727 C 77.610 47.877,77.502 48.000,77.220 48.000 C 76.938 48.000,76.008 48.742,75.153 49.649 C 74.299 50.557,73.600 51.160,73.600 50.991 C 73.600 50.822,73.159 51.159,72.619 51.742 C 72.080 52.324,71.537 52.800,71.413 52.800 C 71.290 52.800,69.762 54.221,68.018 55.957 C 66.275 57.694,64.740 59.007,64.608 58.875 C 64.476 58.743,64.264 59.032,64.137 59.517 C 64.011 60.003,63.776 60.400,63.616 60.400 C 63.098 60.400,54.400 69.526,54.400 70.070 C 54.400 70.278,54.192 70.319,53.938 70.162 C 53.660 69.990,53.585 70.052,53.749 70.318 C 53.902 70.565,53.045 71.737,51.807 72.976 C 50.588 74.194,49.593 75.283,49.596 75.396 C 49.614 76.281,49.559 76.422,49.260 76.237 C 49.073 76.122,48.683 76.471,48.393 77.014 C 48.102 77.556,47.715 78.000,47.532 78.000 C 47.350 78.000,47.200 78.268,47.200 78.595 C 47.200 78.922,46.525 79.838,45.700 80.630 C 44.875 81.423,44.470 81.952,44.800 81.806 C 45.196 81.631,45.164 81.734,44.706 82.110 C 44.325 82.423,44.130 82.796,44.273 82.940 C 44.416 83.083,44.223 83.200,43.843 83.200 C 43.463 83.200,43.264 83.380,43.400 83.600 C 43.536 83.820,43.457 84.000,43.224 84.000 C 42.991 84.000,42.800 84.236,42.800 84.525 C 42.800 84.813,42.485 85.398,42.100 85.825 C 41.715 86.251,41.145 87.095,40.832 87.700 C 40.520 88.305,40.115 88.800,39.932 88.800 C 39.750 88.800,39.600 89.160,39.600 89.600 C 39.600 90.040,39.445 90.400,39.256 90.400 C 39.066 90.400,38.488 91.197,37.971 92.172 C 37.454 93.146,36.889 93.855,36.716 93.748 C 36.542 93.641,36.400 93.833,36.400 94.176 C 36.400 94.519,36.220 94.800,36.000 94.800 C 35.780 94.800,35.600 95.250,35.600 95.800 C 35.600 96.350,35.420 96.800,35.200 96.800 C 34.980 96.800,34.800 97.070,34.800 97.400 C 34.800 97.730,34.620 98.000,34.400 98.000 C 34.180 98.000,34.000 98.270,34.000 98.600 C 34.000 98.930,33.865 99.201,33.700 99.201 C 33.535 99.202,33.064 100.021,32.653 101.020 C 32.242 102.020,31.702 103.054,31.453 103.319 C 30.772 104.042,29.200 107.196,29.200 107.838 C 29.200 108.147,29.020 108.400,28.800 108.400 C 28.580 108.400,28.400 108.613,28.400 108.874 C 28.400 109.556,26.734 112.946,26.228 113.294 C 25.992 113.456,25.939 113.591,26.108 113.594 C 26.278 113.597,26.053 114.313,25.608 115.184 C 25.164 116.055,24.800 117.125,24.800 117.560 C 24.800 117.996,24.620 118.464,24.400 118.600 C 24.180 118.736,24.000 119.197,24.000 119.624 C 24.000 120.051,23.820 120.400,23.600 120.400 C 23.380 120.400,23.200 120.850,23.200 121.400 C 23.200 121.950,23.020 122.400,22.800 122.400 C 22.580 122.400,22.400 122.940,22.400 123.600 C 22.400 124.260,22.220 124.800,22.000 124.800 C 21.780 124.800,21.600 125.149,21.600 125.576 C 21.600 126.003,21.420 126.464,21.200 126.600 C 20.980 126.736,20.800 127.197,20.800 127.624 C 20.800 128.051,20.620 128.400,20.400 128.400 C 20.180 128.400,20.000 129.030,20.000 129.800 C 20.000 130.570,19.820 131.200,19.600 131.200 C 19.380 131.200,19.200 131.562,19.200 132.005 C 19.200 132.448,19.038 133.123,18.839 133.505 C 18.640 133.887,18.260 135.010,17.993 136.000 C 17.726 136.990,17.348 138.250,17.152 138.800 C 16.957 139.350,16.759 140.295,16.712 140.900 C 16.664 141.505,16.526 142.000,16.404 142.000 C 16.127 142.000,15.200 145.918,15.200 147.088 C 15.200 147.564,15.020 148.064,14.800 148.200 C 14.580 148.336,14.400 148.966,14.400 149.600 C 14.400 150.234,14.220 150.864,14.000 151.000 C 13.780 151.136,13.603 151.462,13.606 151.724 C 13.610 152.010,13.767 151.961,14.000 151.600 C 14.328 151.092,14.389 151.112,14.394 151.729 C 14.397 152.129,14.130 152.727,13.801 153.056 C 13.362 153.495,13.308 153.855,13.601 154.401 C 14.100 155.334,14.120 157.315,13.635 157.820 C 13.435 158.029,13.173 159.190,13.053 160.400 C 12.934 161.610,12.738 163.410,12.618 164.400 C 10.400 182.714,10.582 199.751,13.169 216.200 C 13.966 221.263,14.806 225.855,15.181 227.200 C 15.396 227.970,16.043 230.490,16.618 232.800 C 17.194 235.110,17.830 237.585,18.032 238.300 C 18.235 239.015,18.561 240.185,18.757 240.900 C 21.261 250.010,29.317 268.590,34.469 277.141 C 35.311 278.538,36.000 279.748,36.000 279.828 C 36.000 280.246,42.789 290.559,45.330 294.000 C 46.223 295.210,47.684 297.190,48.576 298.400 C 49.468 299.610,50.291 300.690,50.404 300.800 C 50.518 300.910,51.411 301.990,52.389 303.200 C 66.011 320.057,85.592 336.227,104.965 346.615 C 110.101 349.370,113.690 348.947,115.378 345.391 C 116.953 342.070,115.658 339.130,111.648 336.925 C 83.557 321.481,62.342 300.955,45.826 273.237 C 28.767 244.607,20.418 208.202,23.390 175.400 C 24.276 165.621,24.870 161.428,26.452 153.800 C 27.201 150.192,27.627 148.451,29.390 141.800 C 30.551 137.420,35.565 123.380,36.390 122.200 C 36.543 121.980,37.097 120.720,37.620 119.400 C 39.402 114.903,45.389 103.713,48.471 99.122 C 49.312 97.869,50.000 96.729,50.000 96.589 C 50.000 96.330,51.775 93.832,56.354 87.649 C 63.557 77.921,73.993 66.963,83.359 59.292 C 90.669 53.304,91.875 52.074,92.217 50.249 C 92.568 48.377,91.793 45.810,90.590 44.864 C 90.115 44.490,89.530 43.817,89.289 43.367 C 88.882 42.605,85.292 42.041,84.689 42.644 M196.400 43.458 C 191.810 43.687,179.239 45.417,178.800 45.881 C 178.605 46.086,179.715 45.956,184.600 45.199 C 189.171 44.491,193.825 44.002,199.200 43.664 C 202.284 43.470,203.313 43.329,201.600 43.336 C 199.950 43.343,197.610 43.397,196.400 43.458 M213.200 43.426 C 214.095 43.570,223.858 44.286,229.600 44.627 C 230.827 44.700,230.120 44.519,228.000 44.218 C 224.711 43.750,210.507 42.990,213.200 43.426 M138.800 45.254 C 137.774 45.816,137.667 45.952,138.400 45.761 C 139.735 45.413,141.557 44.425,140.800 44.459 C 140.470 44.474,139.570 44.832,138.800 45.254 M134.462 47.052 C 133.286 47.605,132.413 48.146,132.522 48.255 C 132.631 48.364,133.773 47.910,135.060 47.246 C 137.888 45.787,137.454 45.646,134.462 47.052 M174.600 46.424 C 173.940 46.612,171.060 47.337,168.200 48.034 C 165.340 48.731,162.730 49.467,162.400 49.670 C 161.730 50.081,161.554 50.117,166.400 48.848 C 168.050 48.416,170.840 47.755,172.600 47.379 C 174.360 47.003,176.430 46.560,177.200 46.394 L 178.600 46.092 177.200 46.087 C 176.430 46.084,175.260 46.236,174.600 46.424 M130.300 49.029 C 129.695 49.357,129.200 49.706,129.200 49.804 C 129.200 50.028,131.266 49.163,131.780 48.724 C 132.407 48.190,131.504 48.376,130.300 49.029 M127.455 51.055 C 126.875 51.635,126.405 52.400,126.412 52.755 C 126.422 53.260,126.520 53.227,126.867 52.600 C 127.110 52.160,127.676 51.395,128.124 50.900 C 129.257 49.650,128.740 49.769,127.455 51.055 M157.057 51.114 C 155.329 51.696,154.073 52.224,154.266 52.289 C 154.460 52.353,156.144 51.878,158.009 51.233 C 159.874 50.588,161.130 50.059,160.800 50.059 C 160.470 50.058,158.786 50.533,157.057 51.114 M125.909 54.306 C 125.807 54.695,125.863 55.370,126.034 55.806 C 126.270 56.411,126.350 56.243,126.372 55.100 C 126.402 53.493,126.208 53.161,125.909 54.306 M141.200 57.200 C 140.430 57.622,139.913 57.974,140.051 57.983 C 140.465 58.011,143.200 56.805,143.200 56.595 C 143.200 56.246,142.625 56.420,141.200 57.200 M126.434 57.200 C 126.371 59.502,133.067 62.632,134.185 60.824 C 134.323 60.601,133.852 60.539,133.031 60.673 C 130.572 61.071,127.645 59.552,126.788 57.433 C 126.582 56.925,126.444 56.834,126.434 57.200 M137.000 59.171 C 135.680 59.813,134.790 60.352,135.021 60.369 C 135.490 60.403,139.600 58.424,139.600 58.164 C 139.600 57.910,139.551 57.929,137.000 59.171 M331.633 60.100 C 331.725 60.155,332.340 60.650,333.000 61.200 L 334.200 62.200 333.230 61.100 C 332.697 60.495,332.082 60.000,331.864 60.000 C 331.645 60.000,331.542 60.045,331.633 60.100 M199.400 60.632 C 195.878 60.893,189.073 61.640,186.700 62.026 C 178.602 63.343,179.532 63.159,172.600 64.818 C 168.502 65.798,168.142 65.902,162.380 67.773 C 149.359 71.999,136.034 78.425,125.318 85.645 C 123.251 87.038,123.240 87.056,123.818 88.170 C 124.518 89.519,127.148 92.000,127.878 92.000 C 128.165 92.000,128.400 92.136,128.400 92.302 C 128.400 92.469,128.985 92.840,129.700 93.129 C 130.415 93.417,131.313 93.821,131.695 94.026 C 132.823 94.634,133.108 94.525,137.959 91.632 C 220.005 42.697,328.567 91.579,345.546 185.100 C 347.631 196.585,347.791 198.464,347.795 211.600 C 347.800 223.754,347.717 225.018,346.346 233.600 C 342.249 259.262,330.033 285.486,314.083 302.863 C 313.344 303.668,312.305 304.915,311.775 305.634 C 308.258 310.401,312.420 316.519,318.035 314.837 C 323.308 313.257,341.751 286.316,347.360 272.000 C 347.748 271.010,348.339 269.570,348.674 268.800 C 351.043 263.344,354.558 252.560,355.779 247.000 C 361.789 219.642,361.263 196.537,354.020 169.800 C 351.556 160.707,346.026 147.455,340.915 138.400 C 337.118 131.674,336.897 131.310,334.394 127.669 C 329.552 120.626,326.620 116.815,322.337 112.000 C 320.477 109.910,318.516 107.685,317.978 107.056 C 302.455 88.907,269.625 70.197,243.200 64.440 C 241.990 64.177,240.280 63.802,239.400 63.607 C 236.299 62.922,231.828 62.211,224.200 61.190 C 220.977 60.758,203.117 60.357,199.400 60.632 M100.906 67.192 C 99.664 67.950,97.523 69.625,92.800 73.537 C 90.003 75.854,78.489 87.390,75.612 90.758 C 71.519 95.549,63.200 107.094,63.200 107.982 C 63.200 108.212,63.020 108.400,62.800 108.400 C 62.580 108.400,62.400 108.597,62.400 108.838 C 62.400 109.079,62.061 109.754,61.647 110.338 C 58.611 114.621,52.732 126.744,49.396 135.600 C 48.276 138.576,46.327 144.506,45.979 146.000 C 45.800 146.770,45.461 148.075,45.227 148.900 C 44.274 152.251,43.963 153.482,43.640 155.200 C 43.453 156.190,43.025 158.350,42.689 160.000 C 42.353 161.650,41.887 164.350,41.652 166.000 C 41.417 167.650,40.996 170.530,40.717 172.400 C 40.021 177.050,40.024 200.133,40.721 205.000 C 42.127 214.821,42.015 214.154,43.219 219.800 C 43.407 220.680,43.772 222.390,44.030 223.600 C 44.288 224.810,44.636 226.250,44.803 226.800 C 44.970 227.350,45.336 228.610,45.615 229.600 C 48.573 240.078,56.376 258.511,60.021 263.630 C 60.450 264.231,60.800 264.825,60.800 264.949 C 60.800 265.238,64.117 270.414,67.095 274.773 C 73.250 283.781,84.481 296.284,92.393 302.935 C 94.267 304.511,96.041 306.028,96.335 306.306 C 96.629 306.584,97.529 307.303,98.335 307.904 C 99.141 308.504,99.890 309.093,100.000 309.211 C 100.744 310.014,111.372 317.139,114.400 318.864 C 120.757 322.487,130.939 327.600,131.796 327.600 C 131.913 327.600,132.772 327.942,133.704 328.360 C 137.109 329.887,141.211 331.322,141.460 331.074 C 141.600 330.933,141.374 330.708,140.957 330.573 C 140.541 330.438,139.840 330.182,139.400 330.004 C 138.960 329.826,137.970 329.464,137.200 329.200 C 135.507 328.618,134.040 328.029,133.105 327.553 C 132.723 327.359,132.138 327.200,131.805 327.200 C 131.472 327.200,131.200 327.020,131.200 326.800 C 131.200 326.580,130.947 326.400,130.638 326.400 C 130.329 326.400,129.384 326.062,128.538 325.649 C 127.692 325.236,125.920 324.371,124.600 323.726 C 118.276 320.637,105.776 313.234,104.800 312.000 C 104.690 311.861,103.700 311.142,102.600 310.403 C 95.440 305.592,84.070 295.015,76.400 286.032 C 75.410 284.872,74.418 283.715,74.197 283.462 C 71.279 280.123,61.200 265.356,61.200 264.420 C 61.200 264.225,61.065 264.007,60.900 263.933 C 60.202 263.623,53.147 249.413,51.203 244.400 C 50.223 241.872,47.443 233.885,47.026 232.400 C 46.872 231.850,46.588 230.860,46.396 230.200 C 44.507 223.732,43.908 221.081,42.394 212.500 C 40.182 199.950,40.166 177.586,42.361 164.800 C 43.513 158.092,44.435 153.896,46.318 146.800 C 48.607 138.176,55.262 122.229,59.923 114.200 C 60.307 113.540,61.142 112.100,61.779 111.000 C 63.719 107.654,71.243 96.746,72.402 95.600 C 72.514 95.490,73.111 94.721,73.730 93.891 C 74.348 93.061,75.247 91.980,75.727 91.490 C 76.207 91.000,77.117 89.969,77.749 89.199 C 81.244 84.942,91.429 75.114,96.000 71.588 C 96.990 70.825,97.890 70.101,98.000 69.979 C 102.504 65.012,109.200 66.525,109.200 72.509 C 109.200 74.969,108.623 75.794,104.801 78.800 C 95.712 85.949,86.482 95.252,80.395 103.400 C 79.409 104.720,78.496 105.890,78.365 106.000 C 76.066 107.943,65.843 125.967,62.767 133.500 C 62.565 133.995,62.196 134.895,61.946 135.500 C 61.697 136.105,61.361 136.960,61.200 137.400 C 60.763 138.594,59.953 140.508,59.553 141.295 C 59.359 141.677,59.200 142.264,59.200 142.600 C 59.200 142.936,59.037 143.523,58.837 143.905 C 57.744 145.996,55.366 155.131,53.970 162.600 C 51.335 176.697,50.869 194.537,52.789 207.800 C 53.364 211.777,54.366 217.311,54.779 218.800 C 54.993 219.570,55.459 221.370,55.816 222.800 C 56.172 224.230,56.644 226.030,56.865 226.800 C 57.085 227.570,57.362 228.697,57.479 229.305 C 57.596 229.913,57.851 230.508,58.046 230.629 C 58.241 230.749,58.400 231.276,58.400 231.800 C 58.400 232.324,58.580 232.864,58.800 233.000 C 59.020 233.136,59.200 233.599,59.200 234.029 C 59.200 234.459,59.359 235.123,59.553 235.505 C 59.748 235.887,60.084 236.650,60.300 237.200 C 60.516 237.750,60.897 238.695,61.146 239.300 C 61.396 239.905,61.804 240.895,62.054 241.500 C 62.303 242.105,62.650 242.960,62.825 243.400 C 65.464 250.029,75.447 267.744,76.877 268.333 C 77.055 268.407,77.200 268.722,77.200 269.033 C 77.200 269.345,77.341 269.600,77.514 269.600 C 77.686 269.600,78.143 270.133,78.528 270.785 C 78.913 271.437,79.453 272.202,79.727 272.485 C 80.002 272.768,80.667 273.630,81.206 274.400 C 81.745 275.170,82.570 276.250,83.039 276.800 C 89.776 284.692,97.519 292.343,103.978 297.488 C 107.992 300.686,118.453 308.000,119.013 308.000 C 119.158 308.000,119.775 308.355,120.385 308.790 C 121.404 309.515,123.223 310.521,128.600 313.335 C 134.532 316.439,146.556 321.209,148.398 321.189 C 148.949 321.183,147.600 320.572,145.400 319.832 C 139.590 317.875,133.948 315.504,129.200 313.021 C 124.532 310.580,122.024 309.216,120.000 308.015 C 117.654 306.624,106.735 299.250,106.400 298.830 C 106.290 298.692,105.390 297.954,104.400 297.190 C 101.391 294.867,98.760 292.495,92.430 286.400 C 89.491 283.570,83.530 276.643,80.279 272.282 C 76.860 267.695,72.000 260.607,72.000 260.208 C 72.000 260.086,71.266 258.777,70.369 257.300 C 65.663 249.555,60.457 237.267,57.615 227.200 C 57.336 226.210,56.965 224.950,56.792 224.400 C 56.618 223.850,56.268 222.500,56.013 221.400 C 55.758 220.300,55.394 218.770,55.205 218.000 C 54.500 215.142,53.730 210.462,52.835 203.600 C 51.569 193.898,52.062 177.473,53.977 165.600 C 54.670 161.303,56.076 154.923,57.151 151.200 C 57.373 150.430,57.727 149.170,57.937 148.400 C 60.249 139.928,65.355 128.131,71.144 117.890 C 78.534 104.817,91.951 89.501,105.000 79.242 C 108.981 76.113,109.579 75.332,109.842 72.924 C 110.372 68.070,105.057 64.661,100.906 67.192 M310.119 67.184 C 305.661 69.902,306.688 74.333,312.917 79.248 C 323.786 87.826,334.254 98.503,343.065 110.000 C 345.017 112.547,353.200 124.617,353.200 124.950 C 353.200 125.042,353.926 126.314,354.814 127.775 C 360.393 136.959,368.160 155.356,370.993 166.100 C 371.327 167.365,371.873 169.411,372.207 170.648 C 379.571 197.898,378.517 234.194,369.561 261.800 C 369.133 263.120,368.593 264.830,368.362 265.600 C 367.882 267.197,365.057 274.604,364.015 277.000 C 363.632 277.880,362.981 279.410,362.568 280.400 C 361.317 283.401,355.849 294.019,354.019 297.000 C 353.074 298.540,351.954 300.406,351.531 301.147 C 350.883 302.281,349.242 304.719,346.009 309.353 C 344.733 311.180,339.810 317.515,338.054 319.588 C 330.368 328.658,322.471 336.246,311.279 345.314 C 307.192 348.626,306.519 352.155,309.421 355.058 C 309.949 355.586,310.558 356.347,310.773 356.750 C 311.228 357.599,316.037 357.690,316.315 356.854 C 316.399 356.604,316.700 356.400,316.984 356.400 C 317.269 356.400,317.724 356.132,317.996 355.804 C 318.268 355.477,318.631 355.296,318.803 355.402 C 318.975 355.508,319.219 355.326,319.346 354.998 C 319.472 354.669,319.861 354.400,320.211 354.400 C 320.561 354.400,320.736 354.220,320.600 354.000 C 320.464 353.780,320.541 353.600,320.772 353.600 C 321.309 353.600,322.522 352.634,324.664 350.500 C 325.602 349.565,326.587 348.800,326.852 348.800 C 327.117 348.800,327.208 348.674,327.054 348.521 C 326.901 348.367,327.134 348.050,327.572 347.815 C 329.786 346.630,346.400 330.147,346.400 329.135 C 346.400 328.916,347.078 328.076,347.906 327.269 C 348.735 326.461,350.483 324.360,351.792 322.600 C 353.101 320.840,354.404 319.162,354.688 318.870 C 354.971 318.579,355.779 317.499,356.482 316.470 C 357.186 315.442,357.996 314.362,358.281 314.071 C 358.566 313.781,358.800 313.235,358.800 312.860 C 358.800 312.484,359.160 311.917,359.600 311.600 C 360.040 311.283,360.400 310.786,360.400 310.495 C 360.400 310.204,360.731 309.611,361.136 309.177 C 361.541 308.742,362.120 307.895,362.424 307.293 C 363.231 305.694,365.302 302.621,365.677 302.467 C 365.855 302.393,366.004 302.033,366.009 301.667 C 366.014 301.300,366.370 300.550,366.800 300.000 C 367.230 299.450,367.586 298.775,367.591 298.500 C 367.596 298.225,367.780 298.000,368.000 298.000 C 368.220 298.000,368.400 297.782,368.400 297.516 C 368.400 296.893,370.904 291.843,371.300 291.667 C 371.465 291.593,371.600 291.188,371.600 290.767 C 371.600 290.345,371.780 290.000,372.000 290.000 C 372.220 290.000,372.400 289.640,372.400 289.200 C 372.400 288.760,372.580 288.400,372.800 288.400 C 373.020 288.400,373.200 288.040,373.200 287.600 C 373.200 287.160,373.410 286.800,373.667 286.800 C 373.923 286.800,374.029 286.695,373.901 286.567 C 373.773 286.439,373.916 285.742,374.218 285.018 C 374.521 284.294,374.655 283.589,374.517 283.451 C 374.380 283.313,374.477 283.200,374.733 283.200 C 374.990 283.200,375.200 282.840,375.200 282.400 C 375.200 281.960,375.347 281.600,375.528 281.600 C 375.708 281.600,376.100 280.700,376.400 279.600 C 376.700 278.500,377.092 277.600,377.272 277.600 C 377.453 277.600,377.600 277.139,377.600 276.576 C 377.600 276.013,377.742 275.640,377.915 275.748 C 378.088 275.855,378.270 275.460,378.319 274.871 C 378.367 274.282,378.585 273.740,378.803 273.667 C 379.022 273.593,379.200 272.998,379.200 272.343 C 379.200 271.688,379.343 271.241,379.517 271.349 C 379.691 271.456,379.863 271.155,379.899 270.679 C 379.935 270.203,380.137 269.451,380.349 269.007 C 380.560 268.563,380.967 267.345,381.254 266.300 C 381.540 265.255,381.879 264.400,382.006 264.400 C 382.133 264.400,382.281 263.725,382.336 262.900 C 382.390 262.075,382.607 261.340,382.818 261.267 C 383.028 261.193,383.200 260.439,383.200 259.590 C 383.200 258.742,383.380 257.936,383.600 257.800 C 383.820 257.664,384.000 257.034,384.000 256.400 C 384.000 255.766,384.180 255.136,384.400 255.000 C 384.620 254.864,384.800 254.148,384.800 253.410 C 384.800 252.671,384.986 252.005,385.214 251.929 C 385.442 251.853,385.640 250.759,385.655 249.497 C 385.670 248.236,385.844 247.304,386.041 247.426 C 386.239 247.547,386.400 247.313,386.400 246.904 C 386.400 246.495,386.625 245.918,386.900 245.621 C 387.274 245.218,387.277 245.152,386.912 245.358 C 386.300 245.702,385.789 243.889,386.219 242.901 C 388.569 237.514,389.687 205.118,387.976 192.000 C 387.761 190.350,387.399 187.560,387.171 185.800 C 386.944 184.040,386.604 181.880,386.415 181.000 C 386.226 180.120,385.852 178.140,385.583 176.600 C 385.168 174.217,383.128 165.808,381.994 161.800 C 381.807 161.140,381.529 160.150,381.376 159.600 C 372.689 128.403,350.664 95.300,323.600 72.765 C 315.514 66.032,313.426 65.168,310.119 67.184 M190.400 101.232 C 179.140 102.674,171.640 104.503,163.200 107.863 C 159.900 109.177,153.543 112.228,151.200 113.623 C 147.289 115.951,143.962 118.039,143.298 118.582 C 142.914 118.896,141.073 120.289,139.206 121.677 C 132.795 126.443,123.096 136.569,118.884 142.894 C 98.602 173.350,95.140 208.054,109.199 239.999 C 111.484 245.189,117.218 255.459,118.358 256.400 C 118.491 256.510,119.220 257.500,119.978 258.600 C 140.856 288.892,183.673 305.380,220.200 297.194 C 226.482 295.786,229.894 294.752,237.600 291.922 C 239.253 291.315,248.228 286.846,250.776 285.362 C 262.402 278.587,274.529 267.039,282.692 254.969 C 288.507 246.371,293.579 234.850,296.238 224.200 C 303.542 194.945,297.130 163.602,279.027 140.076 C 272.751 131.920,272.234 131.544,270.965 134.217 C 269.877 136.509,267.394 135.930,266.606 133.200 C 265.864 130.631,262.486 126.000,261.355 126.000 C 261.086 126.000,260.807 125.865,260.733 125.700 C 260.569 125.331,257.273 123.600,256.734 123.600 C 256.009 123.600,255.100 122.364,255.100 121.380 C 255.100 120.238,255.851 119.200,256.678 119.200 C 258.695 119.200,247.708 112.591,240.199 109.288 C 224.975 102.591,205.007 99.360,190.400 101.232 M95.000 115.476 C 92.336 116.200,87.650 122.765,82.438 133.075 C 75.793 146.218,72.546 156.850,69.939 174.000 C 66.897 194.011,72.359 225.226,82.012 243.000 C 82.371 243.660,83.445 245.640,84.400 247.400 C 90.609 258.844,94.957 264.000,98.400 264.000 C 104.328 264.000,105.901 258.566,101.668 252.707 C 96.888 246.089,91.584 236.379,88.829 229.200 C 88.111 227.330,87.370 225.440,87.182 225.000 C 86.262 222.847,84.316 215.997,83.431 211.800 C 82.938 209.462,82.436 206.538,81.607 201.167 C 81.075 197.728,81.081 179.576,81.615 175.877 C 81.844 174.295,82.232 171.740,82.478 170.200 C 84.903 155.021,90.690 140.523,99.939 126.456 C 102.717 122.230,102.972 120.927,101.524 118.351 C 100.184 115.966,97.519 114.792,95.000 115.476 M209.600 118.585 C 225.915 120.830,239.113 126.278,250.692 135.549 C 266.763 148.416,276.009 163.613,280.656 184.800 C 283.182 196.316,282.190 212.155,278.139 225.000 C 269.056 253.799,244.100 275.625,214.400 280.746 C 208.114 281.830,206.163 282.000,200.000 282.000 C 193.837 282.000,191.886 281.830,185.600 280.746 C 146.710 274.040,117.996 239.690,117.999 199.877 C 118.000 194.722,118.144 193.104,119.255 185.800 C 119.790 182.280,121.287 176.543,122.743 172.428 L 123.863 169.264 122.731 168.054 C 122.109 167.388,121.600 166.470,121.600 166.014 C 121.600 164.953,126.513 160.000,127.566 160.000 C 128.117 160.000,128.945 159.009,130.384 156.627 C 146.263 130.337,179.392 114.428,209.600 118.585 M298.605 136.759 C 296.944 137.733,295.933 139.639,295.933 141.800 C 295.933 143.781,295.970 143.851,300.300 150.181 C 301.895 152.512,303.200 154.502,303.200 154.603 C 303.200 154.704,303.884 155.914,304.720 157.293 C 311.244 168.050,316.056 182.555,318.406 198.549 C 318.995 202.555,318.996 220.244,318.408 224.312 C 315.049 247.550,307.961 264.229,294.081 281.560 C 289.899 286.783,279.795 296.568,279.056 296.111 C 278.852 295.985,279.026 296.468,279.442 297.185 C 280.894 299.683,283.126 301.828,285.604 303.106 L 288.099 304.393 290.350 302.440 C 309.349 285.949,323.185 261.580,328.574 235.111 C 332.739 214.651,330.340 184.932,323.237 169.000 C 323.041 168.560,322.651 167.570,322.370 166.800 C 318.787 156.982,307.665 138.289,304.403 136.601 C 302.870 135.809,300.097 135.884,298.605 136.759 M243.051 317.627 C 233.631 321.614,221.982 324.614,207.200 326.861 C 202.587 327.562,180.237 327.574,175.600 326.878 C 168.079 325.750,164.372 325.061,158.800 323.759 C 156.490 323.219,154.150 322.688,153.600 322.578 L 152.600 322.377 153.600 322.834 C 155.915 323.891,164.758 325.865,171.400 326.807 C 184.357 328.645,198.683 328.635,211.200 326.780 C 216.895 325.935,218.474 325.629,223.800 324.332 C 224.680 324.118,225.987 323.845,226.704 323.727 C 227.421 323.608,228.106 323.351,228.227 323.156 C 228.348 322.960,228.820 322.800,229.276 322.800 C 230.225 322.800,235.279 321.129,242.087 318.565 C 247.430 316.553,248.541 316.439,250.441 317.708 C 253.194 319.548,253.856 322.994,251.965 325.649 C 251.150 326.793,250.007 327.410,245.200 329.300 C 244.650 329.516,243.887 329.852,243.505 330.047 C 243.123 330.241,242.484 330.400,242.085 330.400 C 241.686 330.400,241.189 330.553,240.980 330.740 C 239.710 331.876,224.113 335.777,215.400 337.138 C 205.264 338.720,202.562 338.922,191.200 338.942 C 178.179 338.965,172.004 338.349,159.448 335.774 C 154.545 334.769,153.718 334.651,154.075 335.009 C 154.409 335.342,163.200 337.171,168.200 337.947 C 194.380 342.008,220.827 339.066,247.000 329.181 C 252.945 326.936,254.934 323.791,252.959 319.760 C 251.255 316.282,247.924 315.564,243.051 317.627 M291.109 323.716 C 289.409 324.862,288.014 325.941,288.009 326.113 C 288.004 326.285,288.945 325.727,290.100 324.874 C 295.041 321.225,298.222 321.061,300.825 324.320 C 301.619 325.314,301.641 325.320,301.103 324.400 C 299.084 320.948,295.569 320.708,291.109 323.716 M301.625 327.562 C 301.593 330.344,300.602 331.680,296.376 334.641 C 294.635 335.861,293.084 337.071,292.929 337.330 C 292.720 337.678,292.796 337.687,293.223 337.367 C 293.540 337.128,295.330 335.835,297.200 334.492 C 301.522 331.388,303.032 328.857,302.040 326.376 C 301.713 325.555,301.647 325.744,301.625 327.562 M279.600 331.438 C 278.830 331.987,276.884 333.167,275.275 334.060 C 273.666 334.953,272.425 335.759,272.517 335.851 C 272.709 336.043,279.357 332.296,280.822 331.169 C 282.280 330.049,281.221 330.282,279.600 331.438 M142.033 331.363 C 142.277 331.602,146.905 333.200,147.353 333.200 C 148.078 333.200,147.291 332.764,145.156 331.984 C 143.203 331.270,141.616 330.955,142.033 331.363 M268.886 337.563 C 265.938 339.113,264.770 339.891,266.212 339.343 C 268.222 338.581,272.786 335.947,271.980 336.015 C 271.881 336.023,270.489 336.720,268.886 337.563 M289.286 339.465 C 287.683 340.477,286.451 341.384,286.548 341.481 C 286.719 341.653,292.400 338.022,292.400 337.741 C 292.400 337.506,292.301 337.561,289.286 339.465 M263.693 340.180 C 262.439 340.872,262.062 341.301,263.012 340.955 C 263.998 340.595,265.514 339.586,264.989 339.639 C 264.775 339.661,264.192 339.904,263.693 340.180 M260.093 341.780 C 258.500 342.660,258.548 342.906,260.179 342.229 C 261.048 341.869,261.843 341.490,261.946 341.387 C 262.326 341.008,260.971 341.294,260.093 341.780 M282.200 343.829 C 280.220 345.030,275.868 347.403,272.529 349.102 C 269.190 350.801,266.519 352.252,266.593 352.327 C 266.815 352.548,278.697 346.427,282.105 344.336 C 283.839 343.271,285.426 342.400,285.629 342.400 C 285.833 342.400,286.000 342.220,286.000 342.000 C 286.000 341.483,286.327 341.326,282.200 343.829 M254.800 344.025 C 254.470 344.233,253.390 344.763,252.400 345.202 C 251.410 345.642,251.050 345.886,251.600 345.745 C 253.126 345.355,256.681 343.667,256.000 343.656 C 255.670 343.651,255.130 343.817,254.800 344.025 M244.400 348.000 C 243.867 348.345,243.867 348.388,244.400 348.388 C 244.730 348.388,245.270 348.213,245.600 348.000 C 246.133 347.655,246.133 347.612,245.600 347.612 C 245.270 347.612,244.730 347.787,244.400 348.000 M242.000 348.800 C 241.467 349.145,241.467 349.188,242.000 349.188 C 242.330 349.188,242.870 349.013,243.200 348.800 C 243.733 348.455,243.733 348.412,243.200 348.412 C 242.870 348.412,242.330 348.587,242.000 348.800 M239.200 349.600 C 238.405 350.114,239.404 350.114,240.600 349.600 L 241.400 349.256 240.600 349.234 C 240.160 349.222,239.530 349.387,239.200 349.600 M236.600 350.400 L 235.800 350.744 236.600 350.766 C 237.040 350.778,237.670 350.613,238.000 350.400 C 238.795 349.886,237.796 349.886,236.600 350.400 M233.600 351.200 C 232.805 351.714,233.804 351.714,235.000 351.200 L 235.800 350.856 235.000 350.834 C 234.560 350.822,233.930 350.987,233.600 351.200 M227.400 352.614 C 225.200 353.135,222.950 353.591,222.400 353.627 C 221.584 353.681,221.544 353.729,222.180 353.891 C 222.609 354.000,223.959 353.860,225.180 353.580 C 230.012 352.472,232.961 351.669,232.200 351.668 C 231.760 351.667,229.600 352.093,227.400 352.614 M264.000 353.200 C 263.230 353.622,262.713 353.974,262.851 353.983 C 263.265 354.011,266.000 352.805,266.000 352.595 C 266.000 352.246,265.425 352.420,264.000 353.200 M219.200 354.210 C 217.993 354.445,212.912 355.192,209.600 355.620 C 204.784 356.242,203.355 357.061,202.149 359.887 C 201.165 362.195,202.211 365.862,204.139 366.859 C 204.853 367.228,204.809 367.100,203.885 366.114 C 199.776 361.731,202.460 356.930,209.506 356.060 C 216.976 355.139,222.983 354.071,220.600 354.087 C 220.160 354.090,219.530 354.145,219.200 354.210 M258.200 355.600 C 257.320 356.007,256.803 356.354,257.051 356.370 C 257.610 356.407,260.400 355.261,260.400 354.995 C 260.400 354.677,259.891 354.817,258.200 355.600 M250.837 358.335 C 249.207 358.921,248.181 359.460,248.556 359.533 C 248.931 359.606,249.455 359.504,249.719 359.305 C 249.984 359.107,251.010 358.700,252.000 358.402 C 252.990 358.105,253.971 357.712,254.180 357.530 C 254.785 357.004,254.045 357.182,250.837 358.335 M246.200 360.000 C 245.429 360.331,245.431 360.345,246.276 360.372 C 246.758 360.387,247.264 360.220,247.400 360.000 C 247.692 359.527,247.301 359.527,246.200 360.000 M243.400 360.845 C 241.303 361.501,233.069 363.663,231.233 364.039 C 230.261 364.238,229.361 364.507,229.233 364.636 C 228.934 364.938,231.578 364.470,234.400 363.721 C 235.610 363.400,237.860 362.804,239.400 362.396 C 243.588 361.287,245.200 360.783,245.200 360.581 C 245.200 360.341,244.839 360.394,243.400 360.845 M225.800 365.200 L 225.000 365.544 225.800 365.525 C 226.240 365.514,227.140 365.368,227.800 365.200 L 229.000 364.895 227.800 364.875 C 227.140 364.865,226.240 365.011,225.800 365.200 M221.000 366.029 C 220.120 366.212,218.410 366.536,217.200 366.750 L 215.000 367.137 217.603 366.932 C 220.568 366.699,225.657 365.678,223.800 365.689 C 223.140 365.693,221.880 365.846,221.000 366.029 M205.400 367.600 C 205.536 367.820,206.042 367.987,206.524 367.972 C 207.369 367.945,207.371 367.931,206.600 367.600 C 205.499 367.127,205.108 367.127,205.400 367.600 M209.600 367.600 L 208.200 367.895 209.600 367.918 C 210.370 367.930,211.810 367.797,212.800 367.620 L 214.600 367.300 212.800 367.303 C 211.810 367.304,210.370 367.438,209.600 367.600 " stroke="none" fill="#2444b3" fill-rule="evenodd"></path></g></svg>